<svg id="グループ_23" data-name="グループ 23" xmlns="http://www.w3.org/2000/svg" width="45.046" height="30.271" viewBox="0 0 45.046 30.271">
  <path id="パス_1" data-name="パス 1" d="M78.923,117.369a.962.962,0,0,1-.25-.033,39.859,39.859,0,0,0-21.061,0,.962.962,0,0,1-1.212-.929V89.856a.963.963,0,0,1,.658-.913,34.219,34.219,0,0,1,22.169,0,.962.962,0,0,1,.658.913v26.551a.962.962,0,0,1-.963.963Zm-10.78-3.374a42.282,42.282,0,0,1,9.818,1.174V90.557a32.183,32.183,0,0,0-19.635,0v24.613A42.282,42.282,0,0,1,68.143,113.995Z" transform="translate(-56.4 -87.097)" fill="#fff"/>
  <path id="パス_2" data-name="パス 2" d="M93.448,122.094a33.662,33.662,0,0,0-10.9,0v-6.665a35.668,35.668,0,0,1,10.9,0Z" transform="translate(-76.258 -108.294)" fill="#fff"/>
  <path id="パス_2_-_アウトライン" data-name="パス 2 - アウトライン" d="M91.17,120.538a.723.723,0,0,1-.116-.009,32.941,32.941,0,0,0-10.666,0,.722.722,0,0,1-.838-.712v-6.665a.722.722,0,0,1,.612-.714,36.389,36.389,0,0,1,11.117,0,.722.722,0,0,1,.612.714v6.665a.722.722,0,0,1-.722.722Zm-5.449-1.888a34.632,34.632,0,0,1,4.727.327v-5.2a35.033,35.033,0,0,0-9.454,0v5.2A34.632,34.632,0,0,1,85.721,118.65Z" transform="translate(-73.979 -106.015)" fill="#fff"/>
  <path id="パス_3" data-name="パス 3" d="M91.181,159.209a.733.733,0,0,1-.093-.006,41.849,41.849,0,0,0-10.713,0,.722.722,0,1,1-.185-1.432,43.29,43.29,0,0,1,11.083,0,.722.722,0,0,1-.092,1.438Z" transform="translate(-73.987 -140.494)" fill="#fff"/>
  <path id="パス_4" data-name="パス 4" d="M91.181,176.7a.725.725,0,0,1-.088-.005,44.372,44.372,0,0,0-10.724,0,.722.722,0,1,1-.175-1.433,45.815,45.815,0,0,1,11.073,0,.722.722,0,0,1-.086,1.439Z" transform="translate(-73.987 -153.793)" fill="#fff"/>
  <path id="パス_5" data-name="パス 5" d="M168.523,117.369a.961.961,0,0,1-.25-.033,39.859,39.859,0,0,0-21.061,0,.963.963,0,0,1-1.212-.929V89.856a.963.963,0,0,1,.658-.913,34.219,34.219,0,0,1,22.169,0,.962.962,0,0,1,.658.913v26.551a.963.963,0,0,1-.963.963Zm-10.78-3.374a42.282,42.282,0,0,1,9.818,1.174V90.557a32.183,32.183,0,0,0-19.635,0v24.613A42.282,42.282,0,0,1,157.743,113.995Z" transform="translate(-124.44 -87.097)" fill="#fff"/>
  <path id="パス_6" data-name="パス 6" d="M183.048,160.414a33.662,33.662,0,0,0-10.9,0v-6.665a35.669,35.669,0,0,1,10.9,0Z" transform="translate(-144.297 -137.393)" fill="#fff"/>
  <path id="パス_6_-_アウトライン" data-name="パス 6 - アウトライン" d="M180.77,158.858a.717.717,0,0,1-.116-.009,32.942,32.942,0,0,0-10.666,0,.722.722,0,0,1-.838-.712v-6.665a.722.722,0,0,1,.612-.713,36.388,36.388,0,0,1,11.117,0,.722.722,0,0,1,.612.713v6.665a.722.722,0,0,1-.722.722Zm-5.449-1.888a34.628,34.628,0,0,1,4.727.327v-5.2a35.033,35.033,0,0,0-9.454,0v5.2A34.629,34.629,0,0,1,175.321,156.97Z" transform="translate(-142.019 -135.115)" fill="#fff"/>
  <path id="パス_7" data-name="パス 7" d="M180.781,117.209a.724.724,0,0,1-.093-.006,41.847,41.847,0,0,0-10.713,0,.722.722,0,1,1-.185-1.432,43.292,43.292,0,0,1,11.083,0,.722.722,0,0,1-.092,1.438Z" transform="translate(-142.026 -108.601)" fill="#fff"/>
  <path id="パス_8" data-name="パス 8" d="M180.781,134.691a.726.726,0,0,1-.088-.005,44.373,44.373,0,0,0-10.723,0,.722.722,0,1,1-.175-1.433,45.818,45.818,0,0,1,11.073,0,.722.722,0,0,1-.086,1.439Z" transform="translate(-142.026 -121.891)" fill="#fff"/>
</svg>
