<svg id="グループ_23" data-name="グループ 23" xmlns="http://www.w3.org/2000/svg" width="24.764" height="16.642" viewBox="0 0 24.764 16.642">
  <path id="パス_1" data-name="パス 1" d="M68.782,103.739a.529.529,0,0,1-.137-.018,21.912,21.912,0,0,0-11.578,0,.529.529,0,0,1-.667-.511v-14.6a.529.529,0,0,1,.362-.5,18.812,18.812,0,0,1,12.187,0,.529.529,0,0,1,.362.5v14.6a.529.529,0,0,1-.529.529Zm-5.926-1.855a23.244,23.244,0,0,1,5.4.646V89a17.693,17.693,0,0,0-10.795,0V102.53A23.244,23.244,0,0,1,62.856,101.884Z" transform="translate(-56.4 -87.097)" fill="#fff"/>
  <path id="パス_2" data-name="パス 2" d="M88.541,118.9a18.505,18.505,0,0,0-5.991,0V115.24a19.609,19.609,0,0,1,5.991,0Z" transform="translate(-79.091 -111.318)" fill="#fff"/>
  <path id="パス_2_-_アウトライン" data-name="パス 2 - アウトライン" d="M85.938,116.7a.4.4,0,0,1-.064-.005,18.108,18.108,0,0,0-5.864,0,.4.4,0,0,1-.461-.392v-3.664a.4.4,0,0,1,.337-.392,20,20,0,0,1,6.112,0,.4.4,0,0,1,.337.392V116.3a.4.4,0,0,1-.4.4Zm-3-1.038a19.039,19.039,0,0,1,2.6.18v-2.86a19.259,19.259,0,0,0-5.2,0v2.86A19.039,19.039,0,0,1,82.942,115.66Z" transform="translate(-76.488 -108.714)" fill="#fff"/>
  <path id="パス_3" data-name="パス 3" d="M85.948,158.4a.4.4,0,0,1-.051,0,23.005,23.005,0,0,0-5.89,0,.4.4,0,1,1-.1-.787,23.8,23.8,0,0,1,6.093,0,.4.4,0,0,1-.05.79Z" transform="translate(-76.496 -148.113)" fill="#fff"/>
  <path id="パス_4" data-name="パス 4" d="M85.948,175.9a.4.4,0,0,1-.049,0,24.4,24.4,0,0,0-5.9,0,.4.4,0,1,1-.1-.788,25.184,25.184,0,0,1,6.087,0,.4.4,0,0,1-.048.791Z" transform="translate(-76.496 -163.308)" fill="#fff"/>
  <path id="パス_5" data-name="パス 5" d="M158.382,103.739a.529.529,0,0,1-.137-.018,21.912,21.912,0,0,0-11.578,0,.529.529,0,0,1-.667-.511v-14.6a.529.529,0,0,1,.362-.5,18.812,18.812,0,0,1,12.187,0,.529.529,0,0,1,.362.5v14.6a.529.529,0,0,1-.529.529Zm-5.926-1.855a23.244,23.244,0,0,1,5.4.646V89a17.692,17.692,0,0,0-10.794,0V102.53A23.244,23.244,0,0,1,152.456,101.884Z" transform="translate(-134.147 -87.097)" fill="#fff"/>
  <path id="パス_6" data-name="パス 6" d="M178.141,157.224a18.506,18.506,0,0,0-5.991,0V153.56a19.608,19.608,0,0,1,5.991,0Z" transform="translate(-156.838 -144.568)" fill="#fff"/>
  <path id="パス_6_-_アウトライン" data-name="パス 6 - アウトライン" d="M175.538,155.018a.4.4,0,0,1-.064-.005,18.11,18.11,0,0,0-5.864,0,.4.4,0,0,1-.461-.392v-3.664a.4.4,0,0,1,.337-.392,20,20,0,0,1,6.112,0,.4.4,0,0,1,.337.392v3.664a.4.4,0,0,1-.4.4Zm-3-1.038a19.035,19.035,0,0,1,2.6.18V151.3a19.258,19.258,0,0,0-5.2,0v2.86A19.036,19.036,0,0,1,172.542,153.98Z" transform="translate(-154.235 -141.965)" fill="#fff"/>
  <path id="パス_7" data-name="パス 7" d="M175.548,116.4a.4.4,0,0,1-.051,0,23,23,0,0,0-5.89,0,.4.4,0,1,1-.1-.787,23.8,23.8,0,0,1,6.093,0,.4.4,0,0,1-.05.79Z" transform="translate(-154.243 -111.669)" fill="#fff"/>
  <path id="パス_8" data-name="パス 8" d="M175.548,133.892l-.048,0a24.4,24.4,0,0,0-5.9,0,.4.4,0,1,1-.1-.788,25.187,25.187,0,0,1,6.087,0,.4.4,0,0,1-.048.791Z" transform="translate(-154.243 -126.856)" fill="#fff"/>
</svg>
