<svg xmlns="http://www.w3.org/2000/svg" xmlns:xlink="http://www.w3.org/1999/xlink" width="255.88" height="49.289" viewBox="0 0 255.88 49.289">
  <defs>
    <clipPath id="clip-path">
      <path id="パス_1739" data-name="パス 1739" d="M0,.877,7.031,22.348,8.6,27.161H30.065l4.782,14.595H13.393l1.9,5.805H42.63L34.049,21.356H12.591L7.784,6.682H29.238L27.338.877Z" transform="translate(0 -0.877)" fill="none"/>
    </clipPath>
    <linearGradient id="linear-gradient" y1="1.031" x2="0.031" y2="1.031" gradientUnits="objectBoundingBox">
      <stop offset="0" stop-color="#db3762"/>
      <stop offset="0.67" stop-color="#a0203f"/>
      <stop offset="1" stop-color="#a0203f"/>
    </linearGradient>
    <clipPath id="clip-path-2">
      <path id="パス_1740" data-name="パス 1740" d="M59.465,21.518H38.01L31.249.878H25.366L40.657,47.561h5.884L39.9,27.28H61.352Z" transform="translate(-25.366 -0.878)" fill="none"/>
    </clipPath>
    <linearGradient id="linear-gradient-2" x1="-0.926" y1="1.031" x2="-0.89" y2="1.031" xlink:href="#linear-gradient"/>
    <clipPath id="clip-path-3">
      <path id="パス_1741" data-name="パス 1741" d="M61.953.878H34.613l1.9,5.795H57.967l10.22,27h5.883Z" transform="translate(-34.613 -0.878)" fill="none"/>
    </clipPath>
    <linearGradient id="linear-gradient-3" x1="-1.153" y1="1.468" x2="-1.119" y2="1.468" xlink:href="#linear-gradient"/>
    <clipPath id="clip-path-4">
      <rect id="長方形_58" data-name="長方形 58" width="255.88" height="49.289" fill="#fff"/>
    </clipPath>
  </defs>
  <g id="グループ_313" data-name="グループ 313" transform="translate(0 0)">
    <g id="グループ_306" data-name="グループ 306" transform="translate(0 1.152)">
      <g id="グループ_305" data-name="グループ 305" clip-path="url(#clip-path)">
        <rect id="長方形_55" data-name="長方形 55" width="42.63" height="46.685" fill="url(#linear-gradient)"/>
      </g>
    </g>
    <g id="グループ_308" data-name="グループ 308" transform="translate(33.332 1.153)">
      <g id="グループ_307" data-name="グループ 307" clip-path="url(#clip-path-2)">
        <rect id="長方形_56" data-name="長方形 56" width="35.986" height="46.683" fill="url(#linear-gradient-2)"/>
      </g>
    </g>
    <g id="グループ_310" data-name="グループ 310" transform="translate(45.482 1.153)">
      <g id="グループ_309" data-name="グループ 309" clip-path="url(#clip-path-3)">
        <rect id="長方形_57" data-name="長方形 57" width="39.458" height="32.797" transform="translate(0 0)" fill="url(#linear-gradient-3)"/>
      </g>
    </g>
    <g id="グループ_312" data-name="グループ 312" transform="translate(0 0)">
      <g id="グループ_311" data-name="グループ 311" clip-path="url(#clip-path-4)">
        <path id="パス_1742" data-name="パス 1742" d="M81.666,6.029A4.748,4.748,0,0,0,77.855,4.2a3.944,3.944,0,0,0-1.282.214,3.178,3.178,0,0,0-1.127.681,3.216,3.216,0,0,0-.8,1.2,4.76,4.76,0,0,0-.293,1.75,3.465,3.465,0,0,0,1.05,2.7,12.278,12.278,0,0,0,2.761,1.808q1.009.5,2.06,1.166a9.275,9.275,0,0,1,1.905,1.6,7.456,7.456,0,0,1,1.939,5.248,9.3,9.3,0,0,1-.641,3.577,7.943,7.943,0,0,1-1.711,2.624,7.028,7.028,0,0,1-2.508,1.614,8.5,8.5,0,0,1-3.031.544,10.024,10.024,0,0,1-4.238-.9,8.916,8.916,0,0,1-3.106-2.252l2.527-3.42a6.437,6.437,0,0,0,2.156,1.71,5.8,5.8,0,0,0,2.586.622,3.249,3.249,0,0,0,2.449-1.01,3.928,3.928,0,0,0,.971-2.838A3.626,3.626,0,0,0,78.36,18,13.256,13.256,0,0,0,75.4,16.059a17.726,17.726,0,0,1-2.118-1.2,8.086,8.086,0,0,1-1.749-1.577,7.171,7.171,0,0,1-1.208-2.135,8.6,8.6,0,0,1-.447-2.936,9.028,9.028,0,0,1,.681-3.674,7.511,7.511,0,0,1,1.791-2.547A7.161,7.161,0,0,1,74.862.492,8.591,8.591,0,0,1,77.7.006a9.769,9.769,0,0,1,3.752.679,7.21,7.21,0,0,1,2.78,2Zm18.972,22.2-1.36-5.832H92.046l-1.4,5.832H85.976L92.82.7h5.949L105.5,28.226ZM95.777,5.1h-.155L92.633,18.742H98.7Zm25.116,23.129-7.348-13.374h-.116V28.226h-4.666V.7h4.665V12.636h.116l7-11.935h5.25l-8.087,12.676L126.3,28.226Zm20.331,0-1.361-5.832h-7.228l-1.4,5.832h-4.67L133.414.7h5.949l6.724,27.524ZM136.366,5.1h-.155l-3,13.646h6.066Zm31.881,23.129.078-21.149h-.117l-5.52,21.149h-3.654l-5.4-21.147h-.116l.078,21.147h-4.239V.7h6.26l5.288,20.14h.155L166.226.7h6.57V28.226Zm29.12-13.8a23.965,23.965,0,0,1-.681,5.929,14.568,14.568,0,0,1-1.963,4.568,9.3,9.3,0,0,1-3.13,2.955,8.728,8.728,0,0,1-8.3,0,9.37,9.37,0,0,1-3.11-2.955,14.568,14.568,0,0,1-1.963-4.568,23.965,23.965,0,0,1-.681-5.929,24.442,24.442,0,0,1,.661-5.909,14.266,14.266,0,0,1,1.945-4.549,9.115,9.115,0,0,1,3.129-2.934,8.9,8.9,0,0,1,8.32,0,9.12,9.12,0,0,1,3.13,2.934,14.6,14.6,0,0,1,1.963,4.549,23.761,23.761,0,0,1,.681,5.912Zm-4.821,0a22.3,22.3,0,0,0-.331-3.946,12.468,12.468,0,0,0-.971-3.189,6.052,6.052,0,0,0-1.594-2.12,3.38,3.38,0,0,0-2.193-.777,3.427,3.427,0,0,0-2.235.777,6.056,6.056,0,0,0-1.6,2.12,12.014,12.014,0,0,0-.953,3.189,23.759,23.759,0,0,0-.31,3.946,23.759,23.759,0,0,0,.31,3.946,12.372,12.372,0,0,0,.953,3.208,6.008,6.008,0,0,0,1.6,2.138,3.6,3.6,0,0,0,4.47,0,6.009,6.009,0,0,0,1.6-2.138,12.37,12.37,0,0,0,.953-3.208,23.731,23.731,0,0,0,.3-3.943Zm15.279-9.758V28.226h-4.583V4.668H198.07V.7H213V4.668Zm26.437,9.758a23.966,23.966,0,0,1-.681,5.929,14.538,14.538,0,0,1-1.963,4.568,9.288,9.288,0,0,1-3.129,2.955,8.728,8.728,0,0,1-8.3,0,9.37,9.37,0,0,1-3.11-2.955,14.568,14.568,0,0,1-1.963-4.568,23.965,23.965,0,0,1-.681-5.929,24.377,24.377,0,0,1,.661-5.909,14.265,14.265,0,0,1,1.945-4.549,9.1,9.1,0,0,1,3.129-2.934,8.9,8.9,0,0,1,8.32,0,9.1,9.1,0,0,1,3.129,2.934,14.574,14.574,0,0,1,1.963,4.549,23.7,23.7,0,0,1,.681,5.912Zm-4.82,0a22.3,22.3,0,0,0-.331-3.946,12.47,12.47,0,0,0-.971-3.189,6.04,6.04,0,0,0-1.6-2.12,3.376,3.376,0,0,0-2.192-.777,3.422,3.422,0,0,0-2.235.777,6.04,6.04,0,0,0-1.6,2.12,12.014,12.014,0,0,0-.953,3.189,23.758,23.758,0,0,0-.31,3.946,23.758,23.758,0,0,0,.31,3.946,12.37,12.37,0,0,0,.953,3.208,5.993,5.993,0,0,0,1.6,2.138,3.6,3.6,0,0,0,4.47,0,5.99,5.99,0,0,0,1.594-2.138,12.271,12.271,0,0,0,.953-3.208,23.733,23.733,0,0,0,.306-3.943Z" transform="translate(21.616 0)" fill="#fff"/>
        <path id="パス_1743" data-name="パス 1743" d="M79.67,33.358H77.623v.378a6.085,6.085,0,0,1-3.678,6.022A9.7,9.7,0,0,0,72.619,38.5,4.7,4.7,0,0,0,75.8,33.75v-.392H73.115V35.89h-1.8V33.358H69.4V31.643h1.916V29.373l2.176.129a.417.417,0,0,1-.378.331v1.811H75.8V29.219l2.2.117c-.012.143-.13.25-.378.3v2.012H79.67Z" transform="translate(21.794 9.176)" fill="#fff"/>
        <path id="パス_1744" data-name="パス 1744" d="M89.31,31.908a.427.427,0,0,1-.166.213c-.177,3.679-.544,5.833-.995,6.506a2.218,2.218,0,0,1-1.938.993,10.872,10.872,0,0,1-2-.212A11.676,11.676,0,0,0,84.07,37.6a11.571,11.571,0,0,0,1.774.26.728.728,0,0,0,.746-.438,14.659,14.659,0,0,0,.578-4.152H84.684a11.166,11.166,0,0,1-3.607,6.365,9.621,9.621,0,0,0-1.48-1.088,8.962,8.962,0,0,0,3.171-5.289h-2.7V31.577H83.1c.106-.8.106-1.42.155-2.3l2.306.191c-.024.141-.142.247-.378.283-.071.7-.083,1.172-.177,1.834h2.649l.331-.13Z" transform="translate(24.995 9.195)" fill="#fff"/>
        <path id="パス_1745" data-name="パス 1745" d="M94.839,34.9v1.823c0,.449.142.7.794.7h1.926a7.547,7.547,0,0,0,1.361-.12c.012.474.035,1.314.059,1.692a7.979,7.979,0,0,1-1.4.106H95.419C93.561,39.1,93,38.272,93,36.794V34.9H89.93V33.27H93V31.4H90.759V29.768h7.677V31.4h-3.6v1.87h4.708V34.9Z" transform="translate(28.24 9.348)" fill="#fff"/>
        <path id="パス_1746" data-name="パス 1746" d="M106.554,36.033a29.369,29.369,0,0,0-3.49-1.7v5.347h-1.928V29.218l2.306.118c-.012.143-.118.272-.378.319v3.265l.343-.474a35.81,35.81,0,0,1,4.152,1.811Z" transform="translate(31.759 9.176)" fill="#fff"/>
        <path id="パス_1747" data-name="パス 1747" d="M114.825,29.344c-.049.12-.155.179-.355.191-.106.284-.238.591-.367.9h3.749V40.17h-1.833V39.6H111.11v.569h-1.74V30.433h2.8a10.724,10.724,0,0,0,.319-1.5Zm1.194,2.77h-4.908v.875h4.908Zm0,2.46h-4.908V35.5h4.908Zm-4.909,3.443h4.908v-.936H111.11Z" transform="translate(34.345 9.086)" fill="#fff"/>
        <path id="パス_1748" data-name="パス 1748" d="M129.143,31.721l.888.046c-.084.947.012,6.732-.544,7.583-.451.674-.947.769-2.3.733a4.342,4.342,0,0,0-.461-1.585c.39.035.721.035.934.035a.394.394,0,0,0,.378-.213c.2-.3.284-1.586.343-5h-.721c-.022,2.259-.355,5.156-2.318,6.872a7.961,7.961,0,0,0-.993-.9c-1.752.214-3.526.4-4.721.52a.251.251,0,0,1-.212.189l-.474-1.608c.627-.037,1.443-.084,2.331-.143v-.507h-2V36.536h2v-.3H119.4V32.478h1.882v-.285h-2.225V30.975h2.225v-.284c-.6.047-1.206.083-1.787.095a4.342,4.342,0,0,0-.378-1.194,24.8,24.8,0,0,0,4.815-.615l1.089,1.183a.25.25,0,0,1-.177.047.5.5,0,0,1-.131-.012c-.485.118-1.053.225-1.679.319a1.473,1.473,0,0,1-.2.059v.4h2.246v1.218h-2.246v.285H124.8v3.761h-1.974v.3h2.045v1.206h-2.045v.4c.673-.046,1.36-.106,2.033-.152v.225a8.968,8.968,0,0,0,1.2-4.9H125.2V31.732h.851v-2.7l1.951.106c-.012.129-.106.2-.343.247v2.343h1.125Zm-8.362,2.141h.5v-.319h-.5Zm0,1.313h.5v-.318h-.5Zm2.578-1.633h-.531v.319h.531Zm0,1.314h-.531v.318h.531Z" transform="translate(37.352 9.1)" fill="#fff"/>
        <path id="パス_1749" data-name="パス 1749" d="M141.015,37.125v1.551h-4.649v1.5H134.58v-1.5H130.1V37.125h4.483v-.449h-3.336V31.8h3.336v-.4h-4.235V29.851h4.235V28.94l2.154.118c-.013.13-.118.213-.368.26v.532h4.307V31.4h-4.307v.4h3.407v4.874h-3.407v.449ZM132.9,33.6h1.679v-.438H132.9Zm0,1.715h1.679v-.449H132.9Zm5.134-2.152h-1.669V33.6h1.669Zm0,1.7h-1.669v.449h1.669Z" transform="translate(40.854 9.088)" fill="#fff"/>
        <path id="パス_1750" data-name="パス 1750" d="M152.094,35.386h-1.762A13.125,13.125,0,0,0,152.378,38a7,7,0,0,0-1.289,1.361,12.894,12.894,0,0,1-1.48-2.307v3.123h-1.7V37.173a9.378,9.378,0,0,1-1.892,2.365,7.525,7.525,0,0,0-1.2-1.325,8.776,8.776,0,0,0,2.438-2.828h-1.8l.093.154-.922,1.265c-.13-.342-.319-.779-.52-1.217v4.59h-1.586V36.333a8.319,8.319,0,0,1-.922,1.845,8.659,8.659,0,0,0-.757-1.573,11.125,11.125,0,0,0,1.573-3.692H141.15V31.328h1.372V28.939l1.929.106c-.012.118-.106.2-.343.237v2.046h1.206v1.385a12.684,12.684,0,0,0,.794-3.372l1.8.378v-.781l2.058.106c-.01.13-.117.213-.355.26v1.549h2.154v1.573h-2.154v1.385h2.485Zm-7.985-2.473v.427c.248.343.865,1.277,1.218,1.845V33.813h2.579V32.428h-.851a7.266,7.266,0,0,1-.486,1.231,8.223,8.223,0,0,0-1.372-.7l.024-.049Zm3.8-2.058V29.8a.349.349,0,0,1-.26.095c-.047.284-.118.615-.189.958Z" transform="translate(44.228 9.088)" fill="#fff"/>
        <path id="パス_1751" data-name="パス 1751" d="M155.923,35.256v2.306c.674-.106,1.361-.213,2.034-.331l.118,1.526c-1.869.4-3.845.794-5.133,1.03a.289.289,0,0,1-.238.223l-.6-1.879c.581-.072,1.3-.179,2.105-.3V35.256h-1.631v-1.6h5v1.6Zm6.921-2.721H159.78c.189,3.076.779,5.8,1.466,5.809.225,0,.378-.65.426-2.095a4.48,4.48,0,0,0,1.5,1.066c-.26,2.389-.841,2.886-2.095,2.886-2.1-.024-2.9-3.6-3.158-7.666h-5.784V30.856h5.712c-.013-.615-.022-1.231-.022-1.846l2.306.118c-.012.154-.13.238-.4.284-.024.473-.024.959-.024,1.444h1.466a9.337,9.337,0,0,0-1.148-1.018l1.138-.934a8.808,8.808,0,0,1,1.478,1.243l-.829.71h1.03Z" transform="translate(47.764 9.077)" fill="#fff"/>
        <path id="パス_1752" data-name="パス 1752" d="M165.8,34.023v-.887a14.442,14.442,0,0,1-1.953,1.112,7.067,7.067,0,0,0-1.005-1.419,11.336,11.336,0,0,0,4.779-3.88l2.272.106a.375.375,0,0,1-.344.26,10.357,10.357,0,0,0,4.755,3.206,8.576,8.576,0,0,0-1.11,1.586,14.162,14.162,0,0,1-1.907-1.066v.982Zm7.7,2.307h-2.448a14.776,14.776,0,0,1,2.5,2.875l-1.61.97a8.793,8.793,0,0,0-.472-.769c-2.568.188-5.181.343-6.945.424a.284.284,0,0,1-.248.2l-.591-1.857c.5,0,1.1-.011,1.75-.024a16.6,16.6,0,0,0,.746-1.821h-2.532v-1.6H173.5Zm-3.041-3.88a9.973,9.973,0,0,1-1.916-1.845,10.184,10.184,0,0,1-1.809,1.845Zm-2.436,3.88.438.141c-.047.12-.189.166-.39.166a14.131,14.131,0,0,1-.733,1.469c.97-.025,2-.049,3.028-.084-.331-.367-.673-.721-1-1.041l1.254-.65Z" transform="translate(51.135 9.091)" fill="#fff"/>
        <path id="パス_1753" data-name="パス 1753" d="M179.221,31.668a.413.413,0,0,1-.213.214,11.792,11.792,0,0,1-1.361,2.59c.581.392,1.48,1.066,1.741,1.279l-1.007,1.407a13.508,13.508,0,0,0-.947-1.053v4.081h-1.7v-3.5a9.37,9.37,0,0,1-1.206.911,6.882,6.882,0,0,0-.8-1.644,8.283,8.283,0,0,0,3.217-3.289H174.11V31.114h1.62V28.948l2.059.106c-.012.131-.118.213-.356.26v1.8h.415l.26-.059Zm3.644,6.483h2.4v1.692H178.5V38.151h2.59v-4H179V32.485h2.093V29.066l2.142.12c-.012.129-.12.212-.367.259v3.041h2.106v1.667h-2.106Z" transform="translate(54.552 9.091)" fill="#fff"/>
      </g>
    </g>
  </g>
</svg>
