<svg xmlns="http://www.w3.org/2000/svg" xmlns:xlink="http://www.w3.org/1999/xlink" width="298.391" height="57.478" viewBox="0 0 298.391 57.478">
  <defs>
    <clipPath id="clip-path">
      <path id="パス_1739" data-name="パス 1739" d="M0,.877,8.2,25.915l1.83,5.613H35.06l5.576,17.02H15.618l2.216,6.77H49.712L39.706,24.758H14.683L9.078,7.646H34.1L31.88.877Z" transform="translate(0 -0.877)" fill="none"/>
    </clipPath>
    <linearGradient id="linear-gradient" y1="1.031" x2="0.031" y2="1.031" gradientUnits="objectBoundingBox">
      <stop offset="0" stop-color="#db3762"/>
      <stop offset="0.67" stop-color="#a0203f"/>
      <stop offset="1" stop-color="#a0203f"/>
    </linearGradient>
    <clipPath id="clip-path-2">
      <path id="パス_1740" data-name="パス 1740" d="M65.13,24.947H40.11L32.226.878h-6.86L43.2,55.317h6.862l-7.747-23.65H67.33Z" transform="translate(-25.366 -0.878)" fill="none"/>
    </clipPath>
    <linearGradient id="linear-gradient-2" x1="-0.926" y1="1.031" x2="-0.89" y2="1.031" xlink:href="#linear-gradient"/>
    <clipPath id="clip-path-3">
      <path id="パス_1741" data-name="パス 1741" d="M66.495.878H34.613l2.216,6.758H61.847L73.766,39.123h6.86Z" transform="translate(-34.613 -0.878)" fill="none"/>
    </clipPath>
    <linearGradient id="linear-gradient-3" x1="-1.153" y1="1.468" x2="-1.119" y2="1.468" xlink:href="#linear-gradient"/>
    <clipPath id="clip-path-4">
      <rect id="長方形_58" data-name="長方形 58" width="298.391" height="57.478" fill="#fff"/>
    </clipPath>
  </defs>
  <g id="グループ_313" data-name="グループ 313" transform="translate(0 0)">
    <g id="グループ_306" data-name="グループ 306" transform="translate(0 1.343)">
      <g id="グループ_305" data-name="グループ 305" clip-path="url(#clip-path)">
        <rect id="長方形_55" data-name="長方形 55" width="49.712" height="54.441" fill="url(#linear-gradient)"/>
      </g>
    </g>
    <g id="グループ_308" data-name="グループ 308" transform="translate(38.869 1.345)">
      <g id="グループ_307" data-name="グループ 307" clip-path="url(#clip-path-2)">
        <rect id="長方形_56" data-name="長方形 56" width="41.964" height="54.439" fill="url(#linear-gradient-2)"/>
      </g>
    </g>
    <g id="グループ_310" data-name="グループ 310" transform="translate(53.039 1.345)">
      <g id="グループ_309" data-name="グループ 309" clip-path="url(#clip-path-3)">
        <rect id="長方形_57" data-name="長方形 57" width="46.013" height="38.245" transform="translate(0 0)" fill="url(#linear-gradient-3)"/>
      </g>
    </g>
    <g id="グループ_312" data-name="グループ 312" transform="translate(0 0)">
      <g id="グループ_311" data-name="グループ 311" clip-path="url(#clip-path-4)">
        <path id="パス_1742" data-name="パス 1742" d="M83.8,7.031A5.537,5.537,0,0,0,79.354,4.9a4.6,4.6,0,0,0-1.5.25,3.707,3.707,0,0,0-1.315.794,3.75,3.75,0,0,0-.929,1.405,5.55,5.55,0,0,0-.342,2.041A4.041,4.041,0,0,0,76.5,12.54a14.318,14.318,0,0,0,3.219,2.108q1.177.588,2.4,1.359a10.816,10.816,0,0,1,2.222,1.86,8.695,8.695,0,0,1,2.262,6.12,10.84,10.84,0,0,1-.748,4.171,9.263,9.263,0,0,1-2,3.06A8.2,8.2,0,0,1,80.935,33.1a9.907,9.907,0,0,1-3.535.634,11.689,11.689,0,0,1-4.942-1.047,10.4,10.4,0,0,1-3.622-2.626l2.947-3.989A7.506,7.506,0,0,0,74.3,28.067a6.762,6.762,0,0,0,3.016.725,3.788,3.788,0,0,0,2.856-1.178A4.581,4.581,0,0,0,81.3,24.3a4.228,4.228,0,0,0-1.359-3.31A15.459,15.459,0,0,0,76.5,18.727a20.671,20.671,0,0,1-2.47-1.405,9.43,9.43,0,0,1-2.04-1.839,8.363,8.363,0,0,1-1.408-2.49,10.027,10.027,0,0,1-.521-3.423,10.528,10.528,0,0,1,.794-4.284,8.758,8.758,0,0,1,2.089-2.97A8.351,8.351,0,0,1,75.863.574a10.018,10.018,0,0,1,3.31-.567A11.392,11.392,0,0,1,83.548.8,8.408,8.408,0,0,1,86.79,3.134Zm22.124,25.884-1.586-6.8H95.9l-1.627,6.8H88.824L96.8.817h6.937l7.847,32.1ZM100.253,5.943h-.181L96.586,21.856h7.073Zm29.289,26.972-8.569-15.6h-.135v15.6H115.4V.817h5.44V14.735h.135L129.133.817h6.122L125.825,15.6l10.02,17.315Zm23.708,0-1.587-6.8h-8.429l-1.627,6.8H136.16l7.982-32.1h6.937l7.841,32.1ZM147.586,5.943H147.4l-3.5,15.913h7.073Zm37.177,26.972.09-24.663h-.136L178.28,32.915h-4.261l-6.3-24.66h-.135l.09,24.66h-4.943V.817h7.3L176.194,24.3h.181L182.406.819h7.662v32.1Zm33.958-16.094a27.945,27.945,0,0,1-.794,6.914,16.988,16.988,0,0,1-2.289,5.326,10.85,10.85,0,0,1-3.65,3.446,10.178,10.178,0,0,1-9.68,0,10.926,10.926,0,0,1-3.627-3.446,16.987,16.987,0,0,1-2.289-5.326,27.945,27.945,0,0,1-.794-6.914,28.5,28.5,0,0,1,.771-6.891,16.636,16.636,0,0,1,2.268-5.3A10.63,10.63,0,0,1,202.285,1.2a10.384,10.384,0,0,1,9.7,0,10.635,10.635,0,0,1,3.65,3.422,17.03,17.03,0,0,1,2.289,5.3,27.707,27.707,0,0,1,.794,6.894Zm-5.622,0a26,26,0,0,0-.386-4.6A14.54,14.54,0,0,0,211.58,8.5a7.058,7.058,0,0,0-1.859-2.472,3.941,3.941,0,0,0-2.557-.906,4,4,0,0,0-2.606.906A7.062,7.062,0,0,0,202.7,8.5a14.01,14.01,0,0,0-1.111,3.719,27.7,27.7,0,0,0-.362,4.6,27.7,27.7,0,0,0,.362,4.6,14.427,14.427,0,0,0,1.111,3.74,7.006,7.006,0,0,0,1.86,2.493,4.2,4.2,0,0,0,5.213,0,7.007,7.007,0,0,0,1.86-2.493,14.425,14.425,0,0,0,1.111-3.74,27.672,27.672,0,0,0,.356-4.6ZM230.917,5.442V32.915h-5.345V5.443h-6.031V.819h17.409V5.443Zm30.829,11.379a27.948,27.948,0,0,1-.794,6.914,16.952,16.952,0,0,1-2.289,5.326,10.831,10.831,0,0,1-3.648,3.446,10.178,10.178,0,0,1-9.68,0,10.927,10.927,0,0,1-3.627-3.446,16.988,16.988,0,0,1-2.289-5.326,27.947,27.947,0,0,1-.794-6.914A28.427,28.427,0,0,1,239.4,9.93a16.636,16.636,0,0,1,2.268-5.3A10.616,10.616,0,0,1,245.311,1.2a10.384,10.384,0,0,1,9.7,0,10.616,10.616,0,0,1,3.648,3.422,16.994,16.994,0,0,1,2.289,5.3,27.635,27.635,0,0,1,.794,6.894Zm-5.621,0a26.012,26.012,0,0,0-.386-4.6A14.542,14.542,0,0,0,254.607,8.5a7.044,7.044,0,0,0-1.86-2.472,3.937,3.937,0,0,0-2.556-.906,3.991,3.991,0,0,0-2.607.906,7.044,7.044,0,0,0-1.86,2.472,14.009,14.009,0,0,0-1.111,3.719,27.7,27.7,0,0,0-.362,4.6,27.7,27.7,0,0,0,.362,4.6,14.424,14.424,0,0,0,1.111,3.74,6.989,6.989,0,0,0,1.86,2.493,4.2,4.2,0,0,0,5.213,0,6.985,6.985,0,0,0,1.859-2.493,14.308,14.308,0,0,0,1.111-3.74,27.677,27.677,0,0,0,.357-4.6Z" transform="translate(36.643 0)" fill="#fff"/>
        <path id="パス_1743" data-name="パス 1743" d="M81.376,34.046H78.988v.441A7.1,7.1,0,0,1,74.7,41.51a11.313,11.313,0,0,0-1.546-1.463c3.008-1.365,3.711-3.3,3.711-5.544v-.457H73.732V37h-2.1V34.046H69.4v-2h2.234V29.4l2.538.15a.486.486,0,0,1-.441.386v2.112h3.132V29.219l2.565.136c-.014.167-.152.291-.441.345v2.346h2.387Z" transform="translate(36.945 15.555)" fill="#fff"/>
        <path id="パス_1744" data-name="パス 1744" d="M90.924,32.344a.5.5,0,0,1-.193.248c-.207,4.291-.634,6.8-1.16,7.587a2.586,2.586,0,0,1-2.26,1.158,12.679,12.679,0,0,1-2.332-.247,13.617,13.617,0,0,0-.165-2.112,13.494,13.494,0,0,0,2.069.3.849.849,0,0,0,.87-.51,17.1,17.1,0,0,0,.674-4.842h-2.9a13.021,13.021,0,0,1-4.206,7.423A11.219,11.219,0,0,0,79.6,40.084a10.451,10.451,0,0,0,3.7-6.168H80.15V31.958h3.53c.124-.938.124-1.656.181-2.677l2.689.222c-.028.164-.165.288-.441.329-.083.815-.1,1.367-.207,2.139h3.089l.386-.152Z" transform="translate(42.372 15.588)" fill="#fff"/>
        <path id="パス_1745" data-name="パス 1745" d="M95.655,35.755V37.88c0,.524.165.814.926.814h2.246a8.8,8.8,0,0,0,1.588-.139c.014.553.041,1.532.069,1.974a9.305,9.305,0,0,1-1.627.124H96.331c-2.167,0-2.815-.967-2.815-2.691V35.755H89.93v-1.9h3.586V31.671H90.9v-1.9h8.952v1.9H95.655v2.181h5.49v1.9Z" transform="translate(47.872 15.847)" fill="#fff"/>
        <path id="パス_1746" data-name="パス 1746" d="M107.454,37.165a34.249,34.249,0,0,0-4.07-1.987v6.235h-2.248V29.218l2.689.138c-.014.167-.138.317-.441.372v3.808l.4-.553a41.759,41.759,0,0,1,4.842,2.112Z" transform="translate(53.838 15.554)" fill="#fff"/>
        <path id="パス_1747" data-name="パス 1747" d="M115.731,29.412c-.057.139-.181.208-.414.222-.124.331-.277.69-.428,1.048h4.372V42.037h-2.138v-.664H111.4v.664H109.37V30.682h3.27a12.508,12.508,0,0,0,.372-1.751Zm1.393,3.23H111.4v1.021h5.723Zm0,2.869H111.4v1.076h5.723ZM111.4,39.526h5.723V38.435H111.4Z" transform="translate(58.221 15.401)" fill="#fff"/>
        <path id="パス_1748" data-name="パス 1748" d="M130.837,32.177l1.036.054c-.1,1.1.014,7.85-.634,8.843-.526.786-1.1.9-2.677.855a5.063,5.063,0,0,0-.538-1.848c.455.041.841.041,1.089.041a.46.46,0,0,0,.441-.248c.236-.345.331-1.85.4-5.835h-.841c-.026,2.634-.414,6.013-2.7,8.014A9.284,9.284,0,0,0,125.252,41c-2.043.25-4.111.469-5.506.607a.293.293,0,0,1-.247.221l-.553-1.876c.731-.043,1.682-.1,2.718-.167V39.2h-2.332V37.791h2.332v-.346H119.47V33.06h2.194v-.333H119.07v-1.42h2.594v-.331c-.7.055-1.407.1-2.084.11a5.063,5.063,0,0,0-.441-1.393,28.921,28.921,0,0,0,5.614-.717l1.27,1.379a.291.291,0,0,1-.207.055.577.577,0,0,1-.153-.014c-.565.138-1.227.262-1.958.372a1.717,1.717,0,0,1-.233.069v.469h2.619v1.42h-2.619v.333h2.3v4.386h-2.3v.346h2.384V39.2h-2.384v.467c.785-.054,1.586-.124,2.371-.178v.262a10.458,10.458,0,0,0,1.394-5.711h-.993v-1.85h.993V29.045l2.276.124c-.014.15-.124.234-.4.288v2.732h1.312Zm-9.752,2.5h.579V34.3h-.579Zm0,1.531h.579v-.371h-.579Zm3.006-1.9h-.619v.372h.619Zm0,1.532h-.619V36.2h.619Z" transform="translate(63.319 15.425)" fill="#fff"/>
        <path id="パス_1749" data-name="パス 1749" d="M142.829,38.485v1.808h-5.421v1.751h-2.082V40.293H130.1V38.485h5.228v-.524h-3.891V32.277h3.891v-.469h-4.939V30h4.939V28.94l2.511.138c-.015.152-.138.248-.429.3V30h5.023v1.807h-5.023v.469h3.973v5.683h-3.973v.524Zm-9.462-4.11h1.958v-.51h-1.958Zm0,2h1.958v-.524h-1.958Zm5.987-2.51h-1.946v.51h1.946Zm0,1.986h-1.946v.524h1.946Z" transform="translate(69.255 15.406)" fill="#fff"/>
        <path id="パス_1750" data-name="パス 1750" d="M153.963,36.457h-2.055a15.307,15.307,0,0,0,2.386,3.049,8.162,8.162,0,0,0-1.5,1.587,15.035,15.035,0,0,1-1.725-2.691v3.642h-1.986v-3.5a10.936,10.936,0,0,1-2.207,2.758,8.776,8.776,0,0,0-1.394-1.545,10.234,10.234,0,0,0,2.842-3.3h-2.1l.109.179-1.076,1.476c-.152-.4-.372-.909-.607-1.419v5.352H142.8V37.561a9.7,9.7,0,0,1-1.076,2.151,10.1,10.1,0,0,0-.883-1.834,12.973,12.973,0,0,0,1.834-4.306H141.2V31.725h1.6V28.939l2.249.124c-.014.138-.124.234-.4.276v2.386h1.407V33.34a14.791,14.791,0,0,0,.926-3.932l2.1.441v-.91l2.4.124c-.012.152-.136.248-.414.3v1.807h2.511v1.834h-2.511v1.615h2.9Zm-9.312-2.884v.5c.29.4,1.008,1.489,1.42,2.151v-1.6h3.008V33.007h-.993a8.471,8.471,0,0,1-.567,1.436,9.588,9.588,0,0,0-1.6-.814l.028-.057Zm4.428-2.4V29.946a.406.406,0,0,1-.3.11c-.055.331-.138.717-.221,1.117Z" transform="translate(74.975 15.406)" fill="#fff"/>
        <path id="パス_1751" data-name="パス 1751" d="M156.558,36.312V39c.786-.124,1.587-.248,2.372-.386l.138,1.779c-2.179.47-4.484.926-5.985,1.2a.337.337,0,0,1-.277.26l-.7-2.191c.677-.084,1.517-.208,2.455-.346V36.312h-1.9V34.449h5.834v1.863Zm8.071-3.173h-3.573c.221,3.587.909,6.759,1.71,6.774.262,0,.441-.759.5-2.443a5.224,5.224,0,0,0,1.753,1.243c-.3,2.786-.981,3.365-2.443,3.365-2.444-.028-3.379-4.192-3.682-8.94h-6.745V31.18h6.661c-.015-.717-.026-1.436-.026-2.153l2.689.138c-.014.179-.152.277-.469.331-.028.552-.028,1.119-.028,1.684h1.71a10.888,10.888,0,0,0-1.339-1.188L162.67,28.9a10.273,10.273,0,0,1,1.724,1.45l-.967.827h1.2Z" transform="translate(80.968 15.387)" fill="#fff"/>
        <path id="パス_1752" data-name="パス 1752" d="M166.288,34.866V33.832a16.844,16.844,0,0,1-2.277,1.3,8.242,8.242,0,0,0-1.172-1.655,13.219,13.219,0,0,0,5.573-4.525l2.649.124a.437.437,0,0,1-.4.3,12.077,12.077,0,0,0,5.546,3.739,10,10,0,0,0-1.295,1.85,16.513,16.513,0,0,1-2.223-1.243v1.145Zm8.979,2.691h-2.855a17.231,17.231,0,0,1,2.91,3.353l-1.877,1.131a10.258,10.258,0,0,0-.55-.9c-2.994.219-6.042.4-8.1.495a.331.331,0,0,1-.29.234l-.69-2.165c.579,0,1.283-.012,2.041-.028a19.347,19.347,0,0,0,.87-2.124h-2.953V35.693h11.491Zm-3.546-4.525a11.629,11.629,0,0,1-2.234-2.151,11.878,11.878,0,0,1-2.11,2.151Zm-2.841,4.525.51.164c-.055.139-.221.193-.455.193a16.483,16.483,0,0,1-.855,1.713c1.131-.029,2.331-.057,3.531-.1-.386-.428-.785-.841-1.171-1.214l1.462-.759Z" transform="translate(86.684 15.411)" fill="#fff"/>
        <path id="パス_1753" data-name="パス 1753" d="M180.134,32.12a.482.482,0,0,1-.248.25,13.752,13.752,0,0,1-1.588,3.02c.677.457,1.725,1.243,2.03,1.491l-1.174,1.641a15.74,15.74,0,0,0-1.1-1.227v4.759h-1.986V37.97a10.924,10.924,0,0,1-1.407,1.062,8.025,8.025,0,0,0-.938-1.917,9.659,9.659,0,0,0,3.751-3.835h-3.3V31.473h1.889V28.948l2.4.124c-.014.153-.138.248-.415.3v2.1h.484l.3-.069Zm4.249,7.561h2.8v1.974h-7.89V39.68h3.02V35.018h-2.441V33.073h2.441V29.086l2.5.139c-.014.15-.139.247-.427.3v3.546h2.456v1.945h-2.456Z" transform="translate(92.476 15.411)" fill="#fff"/>
      </g>
    </g>
  </g>
</svg>
