<svg id="グループ_74" data-name="グループ 74" xmlns="http://www.w3.org/2000/svg" width="27.26" height="27.724" viewBox="0 0 27.26 27.724">
  <path id="パス_1670" data-name="パス 1670" d="M23.706,0H12.116A7.835,7.835,0,0,0,4.281,7.835V19.889a7.835,7.835,0,0,0,7.835,7.835h11.59a7.835,7.835,0,0,0,7.835-7.835V7.835A7.835,7.835,0,0,0,23.706,0ZM7.063,7.835a5.059,5.059,0,0,1,5.053-5.053h11.59a5.059,5.059,0,0,1,5.053,5.053V19.889a5.059,5.059,0,0,1-5.053,5.053H12.116a5.059,5.059,0,0,1-5.053-5.053Z" transform="translate(-4.281)" fill="#fff"/>
  <path id="パス_1671" data-name="パス 1671" d="M131.288,138.424a7.14,7.14,0,1,0-7.139-7.139A7.148,7.148,0,0,0,131.288,138.424Zm0-12.054a4.914,4.914,0,1,1-4.914,4.914A4.92,4.92,0,0,1,131.288,126.37Z" transform="translate(-117.658 -117.423)" fill="#fff"/>
  <ellipse id="楕円形_1" data-name="楕円形 1" cx="1.599" cy="1.6" rx="1.599" ry="1.6" transform="translate(19.379 4.914)" fill="#fff"/>
</svg>
