<svg xmlns="http://www.w3.org/2000/svg" width="35.713" height="24" viewBox="0 0 35.713 24">
  <g id="グループ_23" data-name="グループ 23" transform="translate(0)">
    <path id="パス_1" data-name="パス 1" d="M74.257,111.1a.763.763,0,0,1-.2-.026,31.6,31.6,0,0,0-16.7,0,.763.763,0,0,1-.961-.737V89.284a.763.763,0,0,1,.522-.724,27.129,27.129,0,0,1,17.576,0,.763.763,0,0,1,.522.724v21.05a.763.763,0,0,1-.763.763Zm-8.547-2.675a33.522,33.522,0,0,1,7.784.931V89.84a25.515,25.515,0,0,0-15.567,0v19.514A33.522,33.522,0,0,1,65.71,108.422Z" transform="translate(-56.4 -87.098)" fill="#fff"/>
    <path id="パス_2" data-name="パス 2" d="M91.19,120.626a26.687,26.687,0,0,0-8.64,0v-5.284a28.277,28.277,0,0,1,8.64,0Z" transform="translate(-77.561 -109.685)" fill="#fff"/>
    <path id="パス_2_-_アウトライン" data-name="パス 2 - アウトライン" d="M88.763,118.771a.572.572,0,0,1-.092-.007,26.116,26.116,0,0,0-8.456,0,.572.572,0,0,1-.664-.565v-5.284a.572.572,0,0,1,.485-.566,28.85,28.85,0,0,1,8.814,0,.572.572,0,0,1,.485.566V118.2a.572.572,0,0,1-.572.572Zm-4.32-1.5a27.454,27.454,0,0,1,3.748.259V113.41a27.775,27.775,0,0,0-7.5,0v4.124A27.454,27.454,0,0,1,84.442,117.274Z" transform="translate(-75.134 -107.257)" fill="#fff"/>
    <path id="パス_3" data-name="パス 3" d="M88.773,158.837a.582.582,0,0,1-.074,0,33.177,33.177,0,0,0-8.494,0,.572.572,0,0,1-.147-1.135,34.322,34.322,0,0,1,8.787,0,.572.572,0,0,1-.073,1.14Z" transform="translate(-75.141 -144)" fill="#fff"/>
    <path id="パス_4" data-name="パス 4" d="M88.773,176.333a.574.574,0,0,1-.07,0,35.178,35.178,0,0,0-8.5,0,.572.572,0,1,1-.138-1.136,36.322,36.322,0,0,1,8.779,0,.572.572,0,0,1-.069,1.141Z" transform="translate(-75.141 -158.171)" fill="#fff"/>
    <path id="パス_5" data-name="パス 5" d="M163.857,111.1a.763.763,0,0,1-.2-.026,31.6,31.6,0,0,0-16.7,0,.763.763,0,0,1-.961-.737V89.284a.763.763,0,0,1,.522-.724,27.129,27.129,0,0,1,17.576,0,.763.763,0,0,1,.522.724v21.05a.763.763,0,0,1-.763.763Zm-8.547-2.675a33.522,33.522,0,0,1,7.784.931V89.84a25.515,25.515,0,0,0-15.567,0v19.514A33.522,33.522,0,0,1,155.31,108.422Z" transform="translate(-128.907 -87.098)" fill="#fff"/>
    <path id="パス_6" data-name="パス 6" d="M180.79,158.946a26.687,26.687,0,0,0-8.64,0v-5.284a28.279,28.279,0,0,1,8.64,0Z" transform="translate(-150.068 -140.695)" fill="#fff"/>
    <path id="パス_6_-_アウトライン" data-name="パス 6 - アウトライン" d="M178.363,157.091a.57.57,0,0,1-.092-.007,26.116,26.116,0,0,0-8.456,0,.572.572,0,0,1-.664-.565v-5.284a.572.572,0,0,1,.485-.566,28.848,28.848,0,0,1,8.814,0,.572.572,0,0,1,.485.566v5.284a.572.572,0,0,1-.572.572Zm-4.32-1.5a27.454,27.454,0,0,1,3.748.259V151.73a27.774,27.774,0,0,0-7.5,0v4.124A27.455,27.455,0,0,1,174.042,155.594Z" transform="translate(-147.64 -138.267)" fill="#fff"/>
    <path id="パス_7" data-name="パス 7" d="M178.373,116.837a.575.575,0,0,1-.074,0,33.176,33.176,0,0,0-8.494,0,.572.572,0,1,1-.147-1.135,34.322,34.322,0,0,1,8.787,0,.572.572,0,0,1-.073,1.14Z" transform="translate(-147.648 -110.012)" fill="#fff"/>
    <path id="パス_8" data-name="パス 8" d="M178.373,134.323a.577.577,0,0,1-.07,0,35.177,35.177,0,0,0-8.5,0,.572.572,0,1,1-.138-1.136,36.325,36.325,0,0,1,8.779,0,.572.572,0,0,1-.069,1.141Z" transform="translate(-147.648 -124.176)" fill="#fff"/>
  </g>
</svg>
