<svg id="ハンドルの無料アイコン2" xmlns="http://www.w3.org/2000/svg" width="18.199" height="18.199" viewBox="0 0 18.199 18.199">
  <path id="パス_7" data-name="パス 7" d="M218.441,224.349A1.437,1.437,0,1,0,217,225.785,1.438,1.438,0,0,0,218.441,224.349Z" transform="translate(-207.905 -214.988)" fill="#fff"/>
  <path id="パス_8" data-name="パス 8" d="M15.538,2.665h0A9.079,9.079,0,0,0,9.105,0H9.091a9.1,9.1,0,0,0-.066,18.2l.006,0h.093A9.1,9.1,0,0,0,15.538,2.665ZM14.99,14.986a8.306,8.306,0,0,1-5.885,2.438h0A8.325,8.325,0,0,1,9.085.775l.039,0,.015,0A8.3,8.3,0,0,1,14.99,3.213l.274-.274-.274.274a8.325,8.325,0,0,1,0,11.773Z" transform="translate(-0.004 0)" fill="#fff"/>
  <path id="パス_9" data-name="パス 9" d="M81.888,283.429A6.385,6.385,0,0,0,80.7,283.3a2.312,2.312,0,0,0-1.177.255,1.057,1.057,0,0,0-.378.372,1.026,1.026,0,0,0-.135.523,1.651,1.651,0,0,0,.12.586l0,.008,0,.007a6.773,6.773,0,0,0,3.293,3.375l0,0,0,0a1.905,1.905,0,0,0,.749.179,1.03,1.03,0,0,0,.589-.173,1.359,1.359,0,0,0,.494-.72,4.068,4.068,0,0,0,.171-.966l-.3-.022.3.022c.007-.093.011-.189.011-.286a3.172,3.172,0,0,0-.531-1.816A3.066,3.066,0,0,0,81.888,283.429Zm1.962,3.279a2.772,2.772,0,0,1-.221,1.013.594.594,0,0,1-.185.225.43.43,0,0,1-.254.07,1.316,1.316,0,0,1-.507-.129,6.17,6.17,0,0,1-2.995-3.066,1.07,1.07,0,0,1-.079-.369.426.426,0,0,1,.054-.222.574.574,0,0,1,.317-.23,2.156,2.156,0,0,1,.723-.1,5.776,5.776,0,0,1,1.073.116,2.47,2.47,0,0,1,1.659.976,2.584,2.584,0,0,1,.424,1.476C83.859,286.549,83.855,286.629,83.85,286.709Z" transform="translate(-76.204 -273.233)" fill="#fff"/>
  <path id="パス_10" data-name="パス 10" d="M284.582,283.441a2.73,2.73,0,0,0-.927-.138,6.405,6.405,0,0,0-1.185.126,3.066,3.066,0,0,0-2.035,1.222,3.172,3.172,0,0,0-.531,1.816c0,.1,0,.193.011.287A3.3,3.3,0,0,0,280.2,288a1.183,1.183,0,0,0,.379.444,1.027,1.027,0,0,0,.589.173,1.9,1.9,0,0,0,.749-.179l.006,0h0a6.773,6.773,0,0,0,3.293-3.375l0-.008,0-.006a1.661,1.661,0,0,0,.12-.586,1.023,1.023,0,0,0-.135-.522A1.16,1.16,0,0,0,284.582,283.441Zm.088,1.381a6.17,6.17,0,0,1-2.995,3.066,1.314,1.314,0,0,1-.507.129.43.43,0,0,1-.254-.07.783.783,0,0,1-.264-.416,3.5,3.5,0,0,1-.142-.822c-.006-.079-.009-.16-.009-.242a2.581,2.581,0,0,1,.424-1.476,2.469,2.469,0,0,1,1.658-.976,5.772,5.772,0,0,1,1.073-.116,1.76,1.76,0,0,1,.872.172.457.457,0,0,1,.168.161.428.428,0,0,1,.054.222A1.071,1.071,0,0,1,284.67,284.822Z" transform="translate(-269.954 -273.233)" fill="#fff"/>
  <path id="パス_11" data-name="パス 11" d="M77.211,72.186a1.768,1.768,0,0,0,.718.129,5.3,5.3,0,0,0,1.387-.228c.69-.193,1.411-.381,2.065-.52a6.066,6.066,0,0,1,3.287,0c.654.139,1.375.327,2.064.52l.08-.287-.08.287a5.318,5.318,0,0,0,1.387.228,1.524,1.524,0,0,0,.911-.24.873.873,0,0,0,.28-.338,1.017,1.017,0,0,0,.09-.433,1.809,1.809,0,0,0-.111-.586l0-.007,0-.006a6.742,6.742,0,0,0-12.519,0l0,.007,0,.006a1.8,1.8,0,0,0-.111.586,1.018,1.018,0,0,0,.09.433A.916.916,0,0,0,77.211,72.186Zm.11-1.268a6.145,6.145,0,0,1,11.405,0,1.218,1.218,0,0,1,.077.385.425.425,0,0,1-.034.182.316.316,0,0,1-.175.156,1.2,1.2,0,0,1-.476.078,4.762,4.762,0,0,1-1.227-.206h0c-.7-.195-1.428-.386-2.1-.529a6.628,6.628,0,0,0-3.535,0c-.673.143-1.4.334-2.1.529a4.748,4.748,0,0,1-1.226.206.964.964,0,0,1-.559-.125.275.275,0,0,1-.092-.109.426.426,0,0,1-.034-.182A1.219,1.219,0,0,1,77.32,70.918Z" transform="translate(-73.924 -64.103)" fill="#fff"/>
</svg>
