<svg id="ハンドルの無料アイコン2" xmlns="http://www.w3.org/2000/svg" width="25.516" height="25.517" viewBox="0 0 25.516 25.517">
  <path id="パス_7" data-name="パス 7" d="M219.6,224.927a2.015,2.015,0,1,0-2.015,2.015A2.017,2.017,0,0,0,219.6,224.927Z" transform="translate(-204.824 -211.802)" fill="#fff"/>
  <path id="パス_8" data-name="パス 8" d="M21.784,3.737h0A12.73,12.73,0,0,0,12.765,0h-.02a12.757,12.757,0,0,0-.093,25.514l.008,0h.13A12.758,12.758,0,0,0,21.784,3.737Zm-.768,17.275a11.645,11.645,0,0,1-8.251,3.419h-.006a11.672,11.672,0,0,1-.022-23.344l.054.005.022,0a11.641,11.641,0,0,1,8.2,3.417l.384-.384-.384.384a11.673,11.673,0,0,1,0,16.507Z" transform="translate(-0.004 0)" fill="#fff"/>
  <path id="パス_9" data-name="パス 9" d="M83.044,283.48a8.944,8.944,0,0,0-1.662-.177,3.242,3.242,0,0,0-1.65.358,1.482,1.482,0,0,0-.53.522,1.439,1.439,0,0,0-.189.733,2.315,2.315,0,0,0,.168.822l0,.011,0,.01a9.5,9.5,0,0,0,4.617,4.732l.006,0,.007,0a2.671,2.671,0,0,0,1.05.251,1.444,1.444,0,0,0,.825-.242,1.905,1.905,0,0,0,.693-1.01,5.7,5.7,0,0,0,.24-1.355l-.416-.031.416.031c.01-.131.015-.265.015-.4a4.448,4.448,0,0,0-.745-2.546A4.3,4.3,0,0,0,83.044,283.48Zm2.75,4.6a3.886,3.886,0,0,1-.31,1.42.833.833,0,0,1-.259.316.6.6,0,0,1-.356.1,1.846,1.846,0,0,1-.711-.18,8.651,8.651,0,0,1-4.2-4.3,1.5,1.5,0,0,1-.111-.517.6.6,0,0,1,.075-.312.8.8,0,0,1,.445-.323,3.025,3.025,0,0,1,1.013-.143,8.092,8.092,0,0,1,1.5.162,3.462,3.462,0,0,1,2.325,1.369,3.622,3.622,0,0,1,.6,2.069C85.807,287.854,85.8,287.967,85.794,288.078Z" transform="translate(-75.075 -269.184)" fill="#fff"/>
  <path id="パス_10" data-name="パス 10" d="M286.463,283.5a3.826,3.826,0,0,0-1.3-.194,8.974,8.974,0,0,0-1.662.177,4.3,4.3,0,0,0-2.854,1.713,4.448,4.448,0,0,0-.745,2.546c0,.137.005.271.015.4a4.632,4.632,0,0,0,.4,1.742,1.659,1.659,0,0,0,.531.622,1.441,1.441,0,0,0,.825.243,2.665,2.665,0,0,0,1.05-.252l.009,0,0,0a9.5,9.5,0,0,0,4.617-4.732l.005-.011,0-.009a2.327,2.327,0,0,0,.168-.822,1.434,1.434,0,0,0-.189-.732A1.626,1.626,0,0,0,286.463,283.5Zm.123,1.936a8.651,8.651,0,0,1-4.2,4.3,1.843,1.843,0,0,1-.711.18.6.6,0,0,1-.356-.1,1.1,1.1,0,0,1-.37-.583,4.913,4.913,0,0,1-.2-1.153c-.008-.11-.013-.224-.013-.339a3.619,3.619,0,0,1,.6-2.069,3.462,3.462,0,0,1,2.325-1.369,8.1,8.1,0,0,1,1.5-.162,2.468,2.468,0,0,1,1.222.241.64.64,0,0,1,.236.225.6.6,0,0,1,.075.312A1.5,1.5,0,0,1,286.586,285.433Z" transform="translate(-265.954 -269.184)" fill="#fff"/>
  <path id="パス_11" data-name="パス 11" d="M77.437,74.487a2.479,2.479,0,0,0,1.006.181,7.437,7.437,0,0,0,1.944-.319c.967-.27,1.978-.534,2.895-.729a12.173,12.173,0,0,1,2.3-.318,12.173,12.173,0,0,1,2.3.318c.916.195,1.927.458,2.894.729l.113-.4-.112.4a7.455,7.455,0,0,0,1.944.319,2.137,2.137,0,0,0,1.277-.337,1.224,1.224,0,0,0,.392-.474,1.425,1.425,0,0,0,.126-.608,2.536,2.536,0,0,0-.155-.822l0-.01,0-.008a9.452,9.452,0,0,0-17.552,0l0,.009,0,.009a2.526,2.526,0,0,0-.155.822,1.427,1.427,0,0,0,.126.608A1.284,1.284,0,0,0,77.437,74.487Zm.154-1.778a8.615,8.615,0,0,1,15.991,0,1.707,1.707,0,0,1,.108.54.6.6,0,0,1-.048.255.444.444,0,0,1-.245.219,1.683,1.683,0,0,1-.667.109,6.677,6.677,0,0,1-1.72-.289h0c-.978-.273-2-.541-2.945-.741a12.848,12.848,0,0,0-2.478-.336,12.848,12.848,0,0,0-2.478.336c-.943.2-1.968.468-2.946.741a6.658,6.658,0,0,1-1.719.288,1.351,1.351,0,0,1-.784-.175.385.385,0,0,1-.128-.153.6.6,0,0,1-.048-.255A1.709,1.709,0,0,1,77.591,72.708Z" transform="translate(-72.828 -63.153)" fill="#fff"/>
</svg>
