<svg id="ハンドルの無料アイコン2" xmlns="http://www.w3.org/2000/svg" width="31.765" height="31.766" viewBox="0 0 31.765 31.766">
  <path id="パス_7" data-name="パス 7" d="M220.584,225.42a2.509,2.509,0,1,0-2.509,2.508A2.511,2.511,0,0,0,220.584,225.42Z" transform="translate(-202.193 -209.081)" fill="#fff"/>
  <path id="パス_8" data-name="パス 8" d="M27.118,4.652h0A15.848,15.848,0,0,0,15.89,0h-.025a15.881,15.881,0,0,0-.116,31.762l.01,0h.162a15.882,15.882,0,0,0,11.2-27.112Zm-.956,21.505A14.5,14.5,0,0,1,15.89,30.414h-.007a14.531,14.531,0,0,1-.028-29.061l.067.007.027-.006A14.492,14.492,0,0,1,26.162,5.608l.478-.478-.478.478a14.531,14.531,0,0,1,0,20.549Z" transform="translate(-0.004 0)" fill="#fff"/>
  <path id="パス_9" data-name="パス 9" d="M84.031,283.523a11.137,11.137,0,0,0-2.069-.22,4.035,4.035,0,0,0-2.054.446,1.845,1.845,0,0,0-.66.65,1.791,1.791,0,0,0-.235.912,2.883,2.883,0,0,0,.209,1.023l.005.013.006.012a11.822,11.822,0,0,0,5.747,5.891l.008,0,.008,0a3.326,3.326,0,0,0,1.307.313,1.8,1.8,0,0,0,1.028-.3,2.372,2.372,0,0,0,.863-1.257,7.1,7.1,0,0,0,.3-1.687l-.518-.039.518.039c.012-.163.019-.329.019-.5a5.537,5.537,0,0,0-.927-3.169A5.352,5.352,0,0,0,84.031,283.523Zm3.424,5.724a4.838,4.838,0,0,1-.386,1.768,1.038,1.038,0,0,1-.323.393.75.75,0,0,1-.443.122,2.3,2.3,0,0,1-.885-.224,10.769,10.769,0,0,1-5.227-5.352,1.867,1.867,0,0,1-.138-.643.744.744,0,0,1,.094-.388,1,1,0,0,1,.554-.4,3.765,3.765,0,0,1,1.262-.178,10.072,10.072,0,0,1,1.873.2,4.31,4.31,0,0,1,2.895,1.7,4.509,4.509,0,0,1,.741,2.575C87.471,288.968,87.465,289.109,87.455,289.247Z" transform="translate(-74.111 -265.726)" fill="#fff"/>
  <path id="パス_10" data-name="パス 10" d="M288.07,283.544a4.762,4.762,0,0,0-1.619-.241,11.174,11.174,0,0,0-2.069.22,5.352,5.352,0,0,0-3.553,2.132,5.537,5.537,0,0,0-.927,3.169c0,.171.007.338.019.5a5.766,5.766,0,0,0,.5,2.168,2.066,2.066,0,0,0,.661.775,1.793,1.793,0,0,0,1.028.3,3.317,3.317,0,0,0,1.307-.313l.011,0,0,0a11.822,11.822,0,0,0,5.747-5.891l.007-.014,0-.011a2.9,2.9,0,0,0,.209-1.024,1.785,1.785,0,0,0-.236-.912A2.025,2.025,0,0,0,288.07,283.544Zm.153,2.41A10.769,10.769,0,0,1,283,291.306a2.3,2.3,0,0,1-.885.224.75.75,0,0,1-.443-.122,1.367,1.367,0,0,1-.461-.726,6.116,6.116,0,0,1-.248-1.435c-.01-.137-.016-.279-.016-.422a4.505,4.505,0,0,1,.741-2.576,4.31,4.31,0,0,1,2.894-1.7,10.077,10.077,0,0,1,1.873-.2,3.072,3.072,0,0,1,1.522.3.8.8,0,0,1,.294.28.747.747,0,0,1,.094.388A1.872,1.872,0,0,1,288.223,285.954Z" transform="translate(-262.537 -265.726)" fill="#fff"/>
  <path id="パス_11" data-name="パス 11" d="M77.63,76.451a3.086,3.086,0,0,0,1.253.225,9.258,9.258,0,0,0,2.42-.4c1.2-.337,2.463-.665,3.6-.907a15.155,15.155,0,0,1,2.869-.4,15.155,15.155,0,0,1,2.869.4c1.141.243,2.4.571,3.6.907l.14-.5-.14.5a9.282,9.282,0,0,0,2.42.4,2.661,2.661,0,0,0,1.59-.419,1.524,1.524,0,0,0,.488-.59,1.774,1.774,0,0,0,.157-.756,3.157,3.157,0,0,0-.193-1.023l0-.013,0-.01a11.767,11.767,0,0,0-21.851,0l0,.012,0,.011a3.145,3.145,0,0,0-.193,1.024,1.777,1.777,0,0,0,.157.756A1.6,1.6,0,0,0,77.63,76.451Zm.191-2.214a10.725,10.725,0,0,1,19.907,0,2.125,2.125,0,0,1,.134.673.742.742,0,0,1-.06.317.553.553,0,0,1-.305.273,2.1,2.1,0,0,1-.83.136,8.312,8.312,0,0,1-2.141-.359h0c-1.217-.34-2.492-.673-3.667-.923a15.994,15.994,0,0,0-3.085-.419,16,16,0,0,0-3.085.419c-1.174.25-2.45.583-3.667.923a8.289,8.289,0,0,1-2.14.359,1.682,1.682,0,0,1-.976-.218.48.48,0,0,1-.16-.19.744.744,0,0,1-.059-.317A2.127,2.127,0,0,1,77.822,74.237Z" transform="translate(-71.893 -62.341)" fill="#fff"/>
</svg>
