<svg xmlns="http://www.w3.org/2000/svg" width="30.84" height="24.672" viewBox="0 0 30.84 24.672">
  <path id="icons8-youtube" d="M32.2,7.371a3.864,3.864,0,0,0-2.726-2.726C27.064,4,17.42,4,17.42,4S7.776,4,5.371,4.645A3.864,3.864,0,0,0,2.645,7.371C2,9.776,2,16.336,2,16.336s0,6.56.645,8.965a3.864,3.864,0,0,0,2.726,2.726c2.406.645,12.049.645,12.049.645s9.644,0,12.049-.645A3.862,3.862,0,0,0,32.2,25.3c.645-2.406.645-8.965.645-8.965S32.84,9.776,32.2,7.371ZM14.336,20.342V12.33a.771.771,0,0,1,1.156-.668l6.939,4.006a.771.771,0,0,1,0,1.335L15.492,21.01A.771.771,0,0,1,14.336,20.342Z" transform="translate(-2 -4)" fill="#fff"/>
</svg>
