<svg xmlns="http://www.w3.org/2000/svg" width="422.89" height="99.845" viewBox="0 0 422.89 99.845">
  <g id="グループ_303" data-name="グループ 303" transform="translate(-83.9 -595.18)">
    <path id="パス_1738" data-name="パス 1738" d="M15.2,13.1v3.325H11.275V13.1Zm0,7.45H11.275v-3.4H15.2Zm0,4.325H11.275v-3.6H15.2ZM9.325,27.25H9.65a1.931,1.931,0,0,0,1.625-.625V25.6h11.9c.35,0,.6-.125.65-.4-.9-.825-2.35-1.95-2.35-1.95L20.2,24.875H17.125v-3.6H22.25a.6.6,0,0,0,.65-.4c-.85-.775-2.2-1.825-2.2-1.825l-1.2,1.5H17.125v-3.4H22.25a.6.6,0,0,0,.65-.4c-.85-.775-2.2-1.825-2.2-1.825l-1.2,1.5H17.125V13.1h5.6c.35,0,.575-.125.65-.375-.875-.8-2.275-1.875-2.275-1.875L19.85,12.4H16.1a24.666,24.666,0,0,0,2.25-3,.8.8,0,0,0,.875-.55l-3-.65a28.313,28.313,0,0,1-.975,4.2H11.6l-.25-.1A23.557,23.557,0,0,0,13,9.5c.55.05.85-.15.975-.425L11.1,7.925a28.245,28.245,0,0,1-4.775,9.05l.325.25a18.264,18.264,0,0,0,2.675-2.4ZM1.5,8.925a9.779,9.779,0,0,1,2.875,4.6c2.1,1.55,3.8-2.975-2.625-4.8Zm4.625,10.8a2.011,2.011,0,0,0,1.225-.5L4.975,17.25l-1.1,1.45H.975l.15.75h3.1v7.475C3,27.625,1.75,28.275.9,28.65l1.3,2.325a.509.509,0,0,0,.3-.6,43.207,43.207,0,0,0,3.325-3.6c1.725,3.025,3.75,3.65,8.375,3.65h8.55a1.7,1.7,0,0,1,1.425-1.65v-.35c-3.075.1-7.05.1-10,.1-4.4,0-6.275-.275-8.05-2.225ZM27.65,21.05a22.544,22.544,0,0,0,3.375-3.5V31H31.4a2.66,2.66,0,0,0,1.6-.525v-14.8c.45-.075.7-.225.8-.425l-.9-.35a36.712,36.712,0,0,0,2.75-5.425c.575.05.9-.175,1-.475l-3.1-1.05a39.577,39.577,0,0,1-6.225,12.825Zm21.9,2.35h-.325a25.841,25.841,0,0,1-1.075,4.425.735.735,0,0,1-.625.45c-.475.05-1.425.075-2.725.075H41.9c-1.275,0-1.55-.275-1.55-.975v-7.9a36.893,36.893,0,0,0,8.4-5.25c.55.15.8.05.975-.175l-2.575-1.8a34.877,34.877,0,0,1-6.8,6.525V9.425c.625-.1.875-.35.925-.7L38.35,8.4V27.9c0,1.9.825,2.4,3.25,2.4h3.1c4.725,0,5.825-.325,5.825-1.35,0-.4-.2-.65-.9-.925ZM59.8,11.375c.425.275.575.6.575,1.6,0,1.575-.575,7.2-.575,11,0,4.4,1.825,6.075,5.25,6.075a11.252,11.252,0,0,0,10.15-6.9l-.525-.375a12.032,12.032,0,0,1-9.5,5.25c-2.825,0-3.725-1.175-3.725-4.25a56.552,56.552,0,0,1,.925-9.475c.225-1.2.75-1.425.75-2,0-.8-1.9-2.25-3.225-2.3a6.525,6.525,0,0,0-1.725.25v.5A4.5,4.5,0,0,1,59.8,11.375Zm29.9.475h5.2V14.7H90.325l.2.7h11.55c.35,0,.575-.125.65-.375-.8-.775-2.15-1.825-2.15-1.825L99.4,14.7H96.875V11.85h5.95a.6.6,0,0,0,.65-.4c-.85-.8-2.25-1.875-2.25-1.875l-1.2,1.525h-3.15V8.975c.55-.1.75-.325.8-.65L94.9,8.075V11.1H89.5ZM84.35,7.925a39.612,39.612,0,0,1-1.575,4.525,8.394,8.394,0,0,0-1.875-.725l-.25.175a8.392,8.392,0,0,1,2.3,3.55c1.35.975,2.5-1.025.45-2.6A22.637,22.637,0,0,0,86.175,9.4c.55.05.85-.175.95-.45Zm3.025,10.9a5.931,5.931,0,0,1,.075,1.125c1.475,1.5,3.425-1.7-.675-4.125l-.325.1a11.967,11.967,0,0,1,.825,2.325c-1.3.125-2.55.225-3.65.325a35.761,35.761,0,0,0,4.725-6.05c.525.075.875-.1,1-.375L86.7,11.025a44.151,44.151,0,0,1-3.925,7.625c-.975.075-1.8.125-2.325.125l.675,2.1a.865.865,0,0,0,.625-.525c.85-.225,1.65-.425,2.4-.625V22.4l-2.375-.55a29.1,29.1,0,0,1-1.475,6.9l.4.2a16.6,16.6,0,0,0,2.7-6,.944.944,0,0,0,.75-.275v8.35h.325a1.876,1.876,0,0,0,1.55-.6v-11.2Zm-.775,2.8a12.257,12.257,0,0,1,1.3,4.55c1.525,1.525,3.35-1.9-.975-4.675Zm1.3,9.4c5.675-2.025,6.725-5.85,6.875-9.9.575-.05.825-.25.925-.65L92.725,20.1c.3,4.15-.425,8.2-5.05,10.575Zm15.25-6.275h-.275a34.274,34.274,0,0,1-.8,3.575c-.1.275-.175.325-.4.325a10.661,10.661,0,0,1-1.075.025H99.425c-.5,0-.575-.1-.575-.4v-7.3c.475-.075.7-.3.75-.625l-2.65-.25v8.675c0,1.275.275,1.725,1.925,1.725h1.6c2.65,0,3.4-.4,3.4-1.175,0-.375-.1-.6-.65-.85Zm-1.175-8.1-1.1,1.1h-9.5a7.1,7.1,0,0,0-.25-1.125l-.4-.025a4.2,4.2,0,0,1-1.275,2.925,1.161,1.161,0,0,0-.525,1.5c.325.625,1.3.525,1.775.05a3.706,3.706,0,0,0,.725-2.625h9.525a18.926,18.926,0,0,1-.85,2.475l.3.2a18.088,18.088,0,0,0,2.6-2.35c.475-.025.75-.05.925-.25ZM114.2,19.275c-.675,1.675-1.775,4.3-2.25,5.1-.225.35-.425.35-.625-.025a6.264,6.264,0,0,1-.475-2.625,15.186,15.186,0,0,1,1.675-6.05,5.709,5.709,0,0,0,.8-2.1,4.427,4.427,0,0,0-1.85-2.9,5.778,5.778,0,0,0-1.525-.75l-.3.35a4.27,4.27,0,0,1,1.45,2.775c0,2-1.6,5.675-1.6,8.95a11.339,11.339,0,0,0,1.475,6.15c.375.6.825,1.05,1.375,1.05a.8.8,0,0,0,.9-.85c0-.875-.375-1.325-.375-2.125a6.167,6.167,0,0,1,.25-1.675c.25-.95,1.05-3.35,1.625-5.025Zm6.45-8.45a8.916,8.916,0,0,1,1.675.35c.375.125.525.3.575.85.075.725.175,2.3.25,3.7a12.979,12.979,0,0,1-2.8.35,6.635,6.635,0,0,1-3.85-1.325l-.3.375a4.64,4.64,0,0,0,4.25,2.575,17.079,17.079,0,0,0,2.775-.225c.1,2.4.2,5.5-.575,7.525-.875,2.6-2.5,3.925-4.825,5.2l.275.475c2.85-.9,5.125-2.125,6.275-4.8,1.025-2.225.775-6.075.625-8.75a16.773,16.773,0,0,0,3.25-1.025c.6-.275.8-.55.8-.975,0-.575-.825-.925-1.45-.925a9.881,9.881,0,0,0-1.375.625,12.789,12.789,0,0,1-1.3.45c-.025-.9-.05-1.775-.025-2.35a12.453,12.453,0,0,1,.375-1.7c0-.725-1.65-1.45-2.675-1.45a5.877,5.877,0,0,0-2,.55Zm25.1,7.575a16.6,16.6,0,0,1,3.225-.375,7.261,7.261,0,0,1,2.175.3c.225.075.3.2.125.35a23.991,23.991,0,0,1-2.5,1.8l.275.4a24.347,24.347,0,0,1,2.875-1.125,4.644,4.644,0,0,1,1.525-.35c.75-.05,1.175-.25,1.175-.775A1.516,1.516,0,0,0,153.7,17.4a7.586,7.586,0,0,0-3.35-.625,11.889,11.889,0,0,0-4.775,1.1Zm-2.375-5.525a16.982,16.982,0,0,0,.75-2.3c-.025-.6-1.6-1.275-2.675-1.3a4.89,4.89,0,0,0-1.725.25l-.025.5a9.109,9.109,0,0,1,1.525.525c.45.25.575.45.525,1.05a26.213,26.213,0,0,1-.575,3.125,12.915,12.915,0,0,1-3.2.375,4.422,4.422,0,0,1-3.05-1.35l-.4.3c.825,2.15,2,2.65,3.6,2.65a19.025,19.025,0,0,0,2.6-.25c-.25.95-.525,1.9-.825,2.725a34.863,34.863,0,0,1-3.725,7.625c-.45.8-.8,1.1-.8,1.775s.375,1.275.9,1.275c.625,0,.9-.325,1.275-.975a64.13,64.13,0,0,0,3.75-9.15c.425-1.175.8-2.475,1.15-3.65a36.331,36.331,0,0,0,4.2-1.325c1.2-.475,1.55-.775,1.55-1.3,0-.6-.825-.875-1.3-.875a2.412,2.412,0,0,0-.925.4A17.753,17.753,0,0,1,143,14.225ZM143.75,23.5a8,8,0,0,0,.375,2.7c.65,2.375,2.9,3.45,6.075,3.45a17,17,0,0,0,3.4-.325c.825-.2,1.475-.5,1.475-1.05,0-.725-.8-1.05-1.5-1.05a21.753,21.753,0,0,1-3.925.475c-2.1,0-3.625-.525-4.5-1.9a6.248,6.248,0,0,1-.85-2.35Zm24.525-6.75c0,1.75-4.55,6.7-7.975,9.05l.35.5a28.519,28.519,0,0,0,9.275-7.425c.5-.6,1.1-.875,1.1-1.4a3.911,3.911,0,0,0-2.675-2.75,5.878,5.878,0,0,0-1.6-.05l-.15.45C167.325,15.5,168.275,16.15,168.275,16.75Zm14,6.675c-.3-3.2-4.575-7.05-8.325-8.925l-.35.475a19.268,19.268,0,0,1,6.2,8.5c.375,1.075.6,1.675,1.35,1.65C181.85,25.125,182.375,24.425,182.275,23.425Zm17.6-13.275c1,.475,1.475.875,1.475,1.275a3.028,3.028,0,0,1-.65,1.35A40.741,40.741,0,0,1,188.3,23.55l.325.575a35.379,35.379,0,0,0,9.575-5.9,2,2,0,0,1,.275,1.1,62.459,62.459,0,0,1-.225,6.825c-.1.8-.3,1.325-.3,1.8,0,.95.475,2.15,1.425,2.15.65,0,.95-.4.95-1.375,0-1.425-.15-5.175,0-8.75.025-.65.225-1.025.225-1.375,0-.4-.575-.85-1.3-1.325,1.575-1.525,2.825-2.85,3.725-3.825.7-.75,1.175-.725,1.175-1.275,0-.725-1.225-1.9-2.3-2.25a4.954,4.954,0,0,0-1.8-.225Zm21.025-.1c.85.375,1.5.825,1.5,1.3,0,1.475-3.575,6.55-7.5,9.475l.35.5a22.6,22.6,0,0,0,7.65-6.5,2.3,2.3,0,0,0,1.1.6,5.826,5.826,0,0,0,1.4-.325,32.42,32.42,0,0,1,3.725-.6c.25,0,.35.1.25.425-2,5.025-7.85,11.45-14.275,14.8l.375.525a31.034,31.034,0,0,0,15.95-14.3c.4-.65,1.25-.85,1.25-1.4,0-.775-1.85-1.875-2.5-1.875-.45,0-.7.475-1.375.625a34.916,34.916,0,0,1-4.8.55,2.021,2.021,0,0,1-.375-.025,16.222,16.222,0,0,0,.9-1.375c.4-.625.725-.825.725-1.3,0-.5-1.475-1.325-2.65-1.5a5.61,5.61,0,0,0-1.575-.025Zm21.775,7.35c.25.65,1.4,1.825,2.125,1.825.55,0,.95-.45,1.7-.625,1.675-.4,7.025-1.25,8.85-1.425.325-.025.4.1.3.425a23.744,23.744,0,0,1-11.5,12.075l.35.575a22.307,22.307,0,0,0,13.025-11.225c.375-.725,1.4-1.025,1.4-1.575,0-.725-1.7-2.125-2.525-2.125-.475,0-.725.425-1.5.55-1.775.275-8.8,1.175-10.275,1.175-.8,0-1.225-.55-1.825-1.325l-.425.225A4.537,4.537,0,0,0,242.675,17.4ZM256.2,11.275c0-.725-.925-1.1-2.175-1.1-.5,0-.825.375-2.25.7a16.13,16.13,0,0,1-4.15.625,4.2,4.2,0,0,1-2.5-.925l-.35.3c.85,1.475,1.6,2.225,2.95,2.225a41.688,41.688,0,0,0,7.375-1C255.9,11.925,256.2,11.675,256.2,11.275ZM269.125,12.3a5.087,5.087,0,0,0,.3,1.625c.3.7,1.35,1.9,2.175,1.9.65,0,.8-.5,1.6-.725,1.325-.375,4.725-1.225,6.275-1.45.275-.05.425.025.3.375-2.25,5.05-8.225,11.075-14.1,14.125l.35.575a29.356,29.356,0,0,0,11.1-7.475,19.773,19.773,0,0,1,5.2,4.85c1.175,1.45,1.625,2.225,2.4,2.225a1.03,1.03,0,0,0,1.025-1.1c0-2.3-3.95-4.95-8.025-6.6a42.034,42.034,0,0,0,4.05-5.55c.325-.475,1.2-.725,1.2-1.275,0-.65-1.825-2.125-2.65-2.125-.425,0-.75.55-1.3.7a56.979,56.979,0,0,1-7.575,1.2c-.85,0-1.375-.85-1.825-1.475Zm22.675-.25h10.6c.35,0,.6-.125.675-.4-.8-.775-2.125-1.825-2.125-1.825L299.8,11.3h-1.65V8.925c.6-.1.8-.325.85-.675L296.175,8v3.3h-4.55Zm1.55.25a10.244,10.244,0,0,1,1.1,4.025c1.5,1.5,3.425-1.7-.8-4.15Zm9.75,5.35c.35,0,.6-.125.675-.4-.825-.775-2.2-1.875-2.2-1.875l-1.15,1.55h-2A26.979,26.979,0,0,0,300.9,13.4a.814.814,0,0,0,.9-.475l-2.725-.8a33.812,33.812,0,0,1-1.225,4.8h-6.675l.2.725Zm-5.025,4.975v-1.1h4.575c.35,0,.6-.125.675-.4-.8-.775-2.05-1.8-2.05-1.8l-1.15,1.475h-2.05V18.9c.55-.075.775-.325.8-.625l-2.725-.3V20.8h-4.725l.2.725h3.85a19.463,19.463,0,0,1-4.35,7.2l.3.35a18.362,18.362,0,0,0,4.725-4.7v6.65h.375c.7,0,1.55-.425,1.55-.625V22.9a7.816,7.816,0,0,1,2.45,3.55c1.85,1.25,3.3-2.525-2.4-3.875ZM310.95,16.7h-4.825V11.375a40.933,40.933,0,0,0,6.55-1.475c.65.2,1.075.175,1.3-.05l-2.3-1.875a27.182,27.182,0,0,1-5.3,2.725l-2.225-.725V18.2c0,4.7-.55,9.075-4.2,12.475l.3.325c5.3-3.275,5.875-8.275,5.875-12.775v-.8h3.3v13.6h.325c1.025,0,1.675-.475,1.675-.625V17.425h2.525c.35,0,.6-.125.675-.4-.9-.85-2.375-2.025-2.375-2.025Zm12.65,1.525c-1.975-.775-3.1-1.825-3.1-3.575,0-2.1,1.625-3.2,3.825-3.2a4.205,4.205,0,0,1,2.225.55l.7,3.275h1.425l.175-3.575a7.391,7.391,0,0,0-4.5-1.45c-3.45,0-6.1,1.85-6.1,5.025,0,2.75,1.875,4.325,4.725,5.475l1.025.425c2.45.975,3.45,1.825,3.45,3.6,0,2.225-1.725,3.425-4.375,3.425a5.563,5.563,0,0,1-2.875-.675l-.7-3.425h-1.4l-.175,3.85a10.392,10.392,0,0,0,5.325,1.45c3.8,0,6.45-1.95,6.45-5.2,0-2.575-1.35-4.1-5-5.55Zm27-7.55h-6.55v.95l2.875.375.025,8.925c0,4.9-1.6,6.7-4.8,6.7-2.825,0-4.625-1.525-4.625-6.225V19.15c0-2.45,0-4.85.05-7.225l2.775-.3v-.95H332.7v.95l2.3.25c.025,2.4.025,4.85.025,7.275v2.875c0,5.225,2.7,7.375,6.675,7.375,3.775,0,6.425-2.2,6.425-7.825l.025-9.625,2.45-.325Zm20.1,0h-6.275v1.05l2.525.25-4.45,13.75L357.7,11.95l2.675-.225v-1.05H352.95v.95l2.075.225,6.4,17.325h1.15l5.75-17.25L370.7,11.6Zm8.05,11.6V19h5.1v3.275Zm5.1-7.05v3.05h-5.1v-3.05Zm7.325,0v3.05h-5.25v-3.05Zm-5.25,7.05V19h5.25v3.275ZM392.5,25.95h-6.575V22.975h5.25V24.1h.3a2.751,2.751,0,0,0,1.725-.65V15.575a1.958,1.958,0,0,0,1.025-.5l-2.25-1.75-1.05,1.175h-5V11.975H395.1c.35,0,.625-.125.7-.4-1.025-.875-2.625-2.025-2.625-2.025l-1.425,1.7h-5.825V9c.625-.1.825-.375.875-.725l-2.95-.325v3.3H374.2l.2.725h9.45V14.5H378.9l-2.15-.95V24.575h.325c.825,0,1.675-.45,1.675-.65v-.95h5.1V25.95H373.5l.225.75H383.85v4.325h.425c.775,0,1.65-.45,1.65-.7V26.7h9.9c.325,0,.6-.125.65-.4a31.8,31.8,0,0,0-2.575-2.075Z" transform="translate(83 664)" fill="#fff"/>
    <g id="グループ_155" data-name="グループ 155" transform="translate(0 43)">
      <path id="パス_1737" data-name="パス 1737" d="M24.5-39.97a8.548,8.548,0,0,0-6.86-3.29,7.057,7.057,0,0,0-2.31.385A5.7,5.7,0,0,0,13.3-41.65a5.788,5.788,0,0,0-1.435,2.17,8.563,8.563,0,0,0-.525,3.15,6.234,6.234,0,0,0,1.89,4.865A22.079,22.079,0,0,0,18.2-28.21q1.82.91,3.71,2.1a16.732,16.732,0,0,1,3.43,2.87,13.842,13.842,0,0,1,2.52,3.99,13.916,13.916,0,0,1,.98,5.46,16.778,16.778,0,0,1-1.155,6.44A14.3,14.3,0,0,1,24.6-2.625,12.627,12.627,0,0,1,20.09.28a15.3,15.3,0,0,1-5.46.98A18.036,18.036,0,0,1,7-.35,16.083,16.083,0,0,1,1.4-4.41l4.55-6.16A11.605,11.605,0,0,0,9.835-7.49,10.43,10.43,0,0,0,14.49-6.37,5.86,5.86,0,0,0,18.9-8.19a7.072,7.072,0,0,0,1.75-5.11,6.532,6.532,0,0,0-2.1-5.11,23.886,23.886,0,0,0-5.32-3.5,31.75,31.75,0,0,1-3.815-2.17,14.581,14.581,0,0,1-3.15-2.835,12.89,12.89,0,0,1-2.17-3.85,15.448,15.448,0,0,1-.8-5.285,16.253,16.253,0,0,1,1.225-6.615,13.513,13.513,0,0,1,3.22-4.585,12.929,12.929,0,0,1,4.515-2.695,15.48,15.48,0,0,1,5.11-.875A17.608,17.608,0,0,1,24.115-49.6a12.957,12.957,0,0,1,5.005,3.6ZM71.19,0l.14-38.08h-.21L61.18,0H54.6L44.87-38.08h-.21L44.8,0H37.17V-49.56H48.44L57.96-13.3h.28l9.31-36.26H79.38V0Zm31.29-42.42V0H94.22V-42.42H84.91v-7.14h26.88v7.14Z" transform="translate(395 603)" fill="#fff"/>
      <path id="パス_1736" data-name="パス 1736" d="M24.5-39.97a8.548,8.548,0,0,0-6.86-3.29,7.057,7.057,0,0,0-2.31.385A5.7,5.7,0,0,0,13.3-41.65a5.788,5.788,0,0,0-1.435,2.17,8.563,8.563,0,0,0-.525,3.15,6.234,6.234,0,0,0,1.89,4.865A22.079,22.079,0,0,0,18.2-28.21q1.82.91,3.71,2.1a16.732,16.732,0,0,1,3.43,2.87,13.842,13.842,0,0,1,2.52,3.99,13.916,13.916,0,0,1,.98,5.46,16.778,16.778,0,0,1-1.155,6.44A14.3,14.3,0,0,1,24.6-2.625,12.627,12.627,0,0,1,20.09.28a15.3,15.3,0,0,1-5.46.98A18.036,18.036,0,0,1,7-.35,16.083,16.083,0,0,1,1.4-4.41l4.55-6.16A11.605,11.605,0,0,0,9.835-7.49,10.43,10.43,0,0,0,14.49-6.37,5.86,5.86,0,0,0,18.9-8.19a7.072,7.072,0,0,0,1.75-5.11,6.532,6.532,0,0,0-2.1-5.11,23.886,23.886,0,0,0-5.32-3.5,31.75,31.75,0,0,1-3.815-2.17,14.581,14.581,0,0,1-3.15-2.835,12.89,12.89,0,0,1-2.17-3.85,15.448,15.448,0,0,1-.8-5.285,16.253,16.253,0,0,1,1.225-6.615,13.513,13.513,0,0,1,3.22-4.585,12.929,12.929,0,0,1,4.515-2.695,15.48,15.48,0,0,1,5.11-.875A17.608,17.608,0,0,1,24.115-49.6a12.957,12.957,0,0,1,5.005,3.6ZM58.66,0,56.21-10.5H43.19L40.67,0h-8.4L44.59-49.56H55.3L67.41,0ZM49.91-41.65h-.28L44.24-17.08H55.16ZM95.13,0,81.9-24.08h-.21V0h-8.4V-49.56h8.4v21.49h.21L94.5-49.56h9.45L89.39-26.74,104.86,0Zm36.61,0-2.45-10.5H116.27L113.75,0h-8.4l12.32-49.56h10.71L140.49,0Zm-8.75-41.65h-.28l-5.39,24.57h10.92ZM180.39,0l.14-38.08h-.21L170.38,0H163.8l-9.73-38.08h-.21L154,0h-7.63V-49.56h11.27l9.52,36.26h.28l9.31-36.26h11.83V0Zm52.43-24.85A43.144,43.144,0,0,1,231.6-14.175,26.23,26.23,0,0,1,228.06-5.95a16.75,16.75,0,0,1-5.635,5.32,14.817,14.817,0,0,1-7.455,1.89,14.764,14.764,0,0,1-7.49-1.89,16.867,16.867,0,0,1-5.6-5.32,26.23,26.23,0,0,1-3.535-8.225A43.144,43.144,0,0,1,197.12-24.85a43.919,43.919,0,0,1,1.19-10.64,25.693,25.693,0,0,1,3.5-8.19,16.414,16.414,0,0,1,5.635-5.285,15.18,15.18,0,0,1,7.525-1.855,15.038,15.038,0,0,1,7.455,1.855,16.414,16.414,0,0,1,5.635,5.285,26.26,26.26,0,0,1,3.535,8.19A42.722,42.722,0,0,1,232.82-24.85Zm-8.68,0a40.335,40.335,0,0,0-.6-7.105,22.5,22.5,0,0,0-1.75-5.74,10.88,10.88,0,0,0-2.87-3.815,6.074,6.074,0,0,0-3.955-1.4,6.172,6.172,0,0,0-4.025,1.4,10.88,10.88,0,0,0-2.87,3.815,21.634,21.634,0,0,0-1.715,5.74,42.794,42.794,0,0,0-.56,7.105,42.794,42.794,0,0,0,.56,7.1,22.178,22.178,0,0,0,1.715,5.775,10.816,10.816,0,0,0,2.87,3.85,6.172,6.172,0,0,0,4.025,1.4,6.172,6.172,0,0,0,4.025-1.4,10.816,10.816,0,0,0,2.87-3.85,22.178,22.178,0,0,0,1.715-5.775A42.794,42.794,0,0,0,224.14-24.85Zm27.51-17.57V0h-8.26V-42.42h-9.31v-7.14h26.88v7.14Zm47.6,17.57a43.143,43.143,0,0,1-1.225,10.675A26.23,26.23,0,0,1,294.49-5.95a16.75,16.75,0,0,1-5.635,5.32A14.817,14.817,0,0,1,281.4,1.26a14.764,14.764,0,0,1-7.49-1.89,16.868,16.868,0,0,1-5.6-5.32,26.23,26.23,0,0,1-3.535-8.225A43.143,43.143,0,0,1,263.55-24.85a43.919,43.919,0,0,1,1.19-10.64,25.692,25.692,0,0,1,3.5-8.19,16.414,16.414,0,0,1,5.635-5.285A15.179,15.179,0,0,1,281.4-50.82a15.038,15.038,0,0,1,7.455,1.855,16.414,16.414,0,0,1,5.635,5.285,26.26,26.26,0,0,1,3.535,8.19A42.721,42.721,0,0,1,299.25-24.85Zm-8.68,0a40.335,40.335,0,0,0-.6-7.105,22.5,22.5,0,0,0-1.75-5.74,10.88,10.88,0,0,0-2.87-3.815,6.074,6.074,0,0,0-3.955-1.4,6.172,6.172,0,0,0-4.025,1.4,10.88,10.88,0,0,0-2.87,3.815,21.635,21.635,0,0,0-1.715,5.74,42.8,42.8,0,0,0-.56,7.105,42.8,42.8,0,0,0,.56,7.1,22.179,22.179,0,0,0,1.715,5.775,10.815,10.815,0,0,0,2.87,3.85,6.172,6.172,0,0,0,4.025,1.4,6.172,6.172,0,0,0,4.025-1.4,10.815,10.815,0,0,0,2.87-3.85,22.178,22.178,0,0,0,1.715-5.775A42.792,42.792,0,0,0,290.57-24.85Z" transform="translate(83 603)" fill="#fff"/>
    </g>
  </g>
</svg>
