<svg xmlns="http://www.w3.org/2000/svg" width="235.681" height="55.645" viewBox="0 0 235.681 55.645">
  <g id="グループ_303" data-name="グループ 303" transform="translate(-83.9 -595.18)">
    <path id="パス_1738" data-name="パス 1738" d="M8.87,10.809v1.853H6.682V10.809Zm0,4.152H6.682V13.066H8.87Zm0,2.41H6.682V15.365H8.87ZM5.6,18.7h.181a1.076,1.076,0,0,0,.906-.348v-.571h6.632c.2,0,.334-.07.362-.223-.5-.46-1.31-1.087-1.31-1.087l-.711.906H9.942V15.365H12.8a.333.333,0,0,0,.362-.223c-.474-.432-1.226-1.017-1.226-1.017l-.669.836H9.942V13.066H12.8a.333.333,0,0,0,.362-.223c-.474-.432-1.226-1.017-1.226-1.017l-.669.836H9.942V10.809h3.121c.2,0,.32-.07.362-.209-.488-.446-1.268-1.045-1.268-1.045l-.7.864H9.371a13.746,13.746,0,0,0,1.254-1.672.446.446,0,0,0,.488-.307L9.441,8.078A15.779,15.779,0,0,1,8.9,10.419H6.863l-.139-.056a13.128,13.128,0,0,0,.92-1.56c.307.028.474-.084.543-.237l-1.6-.641a15.741,15.741,0,0,1-2.661,5.044l.181.139A10.179,10.179,0,0,0,5.6,11.77ZM1.234,8.482a5.45,5.45,0,0,1,1.6,2.564c1.17.864,2.118-1.658-1.463-2.675ZM3.812,14.5a1.121,1.121,0,0,0,.683-.279l-1.324-1.1-.613.808H.942l.084.418H2.753v4.166c-.683.39-1.379.752-1.853.961l.725,1.3a.284.284,0,0,0,.167-.334A24.08,24.08,0,0,0,3.645,18.43c.961,1.686,2.09,2.034,4.667,2.034h4.765a.945.945,0,0,1,.794-.92v-.2c-1.714.056-3.929.056-5.573.056-2.452,0-3.5-.153-4.486-1.24Zm12,.738a12.564,12.564,0,0,0,1.881-1.951v7.5H17.9a1.483,1.483,0,0,0,.892-.293V12.244c.251-.042.39-.125.446-.237l-.5-.2a20.46,20.46,0,0,0,1.533-3.023c.32.028.5-.1.557-.265L19.1,7.939a22.057,22.057,0,0,1-3.469,7.148Zm12.205,1.31h-.181a14.4,14.4,0,0,1-.6,2.466.409.409,0,0,1-.348.251c-.265.028-.794.042-1.519.042H23.75c-.711,0-.864-.153-.864-.543v-4.4a20.561,20.561,0,0,0,4.681-2.926c.307.084.446.028.543-.1l-1.435-1a19.438,19.438,0,0,1-3.79,3.636V8.761c.348-.056.488-.2.516-.39l-1.63-.181V19.057c0,1.059.46,1.338,1.811,1.338H25.31c2.633,0,3.246-.181,3.246-.752,0-.223-.111-.362-.5-.516Zm5.712-6.7c.237.153.32.334.32.892,0,.878-.32,4.013-.32,6.13,0,2.452,1.017,3.386,2.926,3.386a6.271,6.271,0,0,0,5.657-3.845l-.293-.209a6.706,6.706,0,0,1-5.294,2.926c-1.574,0-2.076-.655-2.076-2.369a31.517,31.517,0,0,1,.516-5.281c.125-.669.418-.794.418-1.115,0-.446-1.059-1.254-1.8-1.282a3.637,3.637,0,0,0-.961.139V9.5A2.508,2.508,0,0,1,33.726,9.848Zm16.664.265h2.9V11.7h-2.55l.111.39h6.437c.2,0,.32-.07.362-.209-.446-.432-1.2-1.017-1.2-1.017L55.8,11.7H54.388V10.112H57.7a.333.333,0,0,0,.362-.223c-.474-.446-1.254-1.045-1.254-1.045l-.669.85H54.388V8.51c.307-.056.418-.181.446-.362l-1.547-.139V9.694H50.278ZM47.408,7.925a22.077,22.077,0,0,1-.878,2.522,4.678,4.678,0,0,0-1.045-.4l-.139.1a4.677,4.677,0,0,1,1.282,1.978c.752.543,1.393-.571.251-1.449a12.616,12.616,0,0,0,1.547-1.923c.307.028.474-.1.529-.251ZM49.093,14a3.305,3.305,0,0,1,.042.627c.822.836,1.909-.947-.376-2.3l-.181.056a6.669,6.669,0,0,1,.46,1.3c-.725.07-1.421.125-2.034.181a19.93,19.93,0,0,0,2.633-3.372c.293.042.488-.056.557-.209l-1.477-.627A24.606,24.606,0,0,1,46.53,13.9c-.543.042-1,.07-1.3.07l.376,1.17a.482.482,0,0,0,.348-.293c.474-.125.92-.237,1.338-.348v1.491l-1.324-.307a16.217,16.217,0,0,1-.822,3.845l.223.111a9.25,9.25,0,0,0,1.5-3.344.526.526,0,0,0,.418-.153V20.8h.181a1.045,1.045,0,0,0,.864-.334V14.223Zm-.432,1.56a6.831,6.831,0,0,1,.725,2.536c.85.85,1.867-1.059-.543-2.605Zm.725,5.239c3.163-1.129,3.748-3.26,3.832-5.517.32-.028.46-.139.516-.362l-1.658-.209c.167,2.313-.237,4.57-2.814,5.894Zm8.5-3.5h-.153a19.1,19.1,0,0,1-.446,1.992c-.056.153-.1.181-.223.181a5.941,5.941,0,0,1-.6.014h-.655c-.279,0-.32-.056-.32-.223V15.2c.265-.042.39-.167.418-.348L54.43,14.71v4.835c0,.711.153.961,1.073.961h.892c1.477,0,1.895-.223,1.895-.655,0-.209-.056-.334-.362-.474Zm-.655-4.514-.613.613H51.323a3.956,3.956,0,0,0-.139-.627l-.223-.014a2.341,2.341,0,0,1-.711,1.63.647.647,0,0,0-.293.836c.181.348.725.293.989.028a2.066,2.066,0,0,0,.4-1.463h5.308a10.548,10.548,0,0,1-.474,1.379l.167.111a10.081,10.081,0,0,0,1.449-1.31c.265-.014.418-.028.516-.139Zm6.813,1.463c-.376.933-.989,2.4-1.254,2.842-.125.2-.237.2-.348-.014a3.491,3.491,0,0,1-.265-1.463,8.464,8.464,0,0,1,.933-3.372,3.181,3.181,0,0,0,.446-1.17,2.467,2.467,0,0,0-1.031-1.616,3.22,3.22,0,0,0-.85-.418l-.167.2a2.38,2.38,0,0,1,.808,1.547c0,1.115-.892,3.163-.892,4.988a6.319,6.319,0,0,0,.822,3.427c.209.334.46.585.766.585a.447.447,0,0,0,.5-.474c0-.488-.209-.738-.209-1.184a3.437,3.437,0,0,1,.139-.933c.139-.529.585-1.867.906-2.8Zm3.595-4.709a4.969,4.969,0,0,1,.933.2c.209.07.293.167.32.474.042.4.1,1.282.139,2.062a7.233,7.233,0,0,1-1.56.2,3.7,3.7,0,0,1-2.146-.738l-.167.209a2.586,2.586,0,0,0,2.369,1.435,9.519,9.519,0,0,0,1.547-.125,11.826,11.826,0,0,1-.32,4.194,4.965,4.965,0,0,1-2.689,2.9l.153.265a5,5,0,0,0,3.5-2.675c.571-1.24.432-3.386.348-4.876a9.348,9.348,0,0,0,1.811-.571c.334-.153.446-.307.446-.543,0-.32-.46-.516-.808-.516a5.506,5.506,0,0,0-.766.348,7.127,7.127,0,0,1-.725.251c-.014-.5-.028-.989-.014-1.31a6.94,6.94,0,0,1,.209-.947c0-.4-.92-.808-1.491-.808a3.276,3.276,0,0,0-1.115.307Zm13.988,4.222a9.254,9.254,0,0,1,1.8-.209,4.046,4.046,0,0,1,1.212.167c.125.042.167.111.07.2a13.37,13.37,0,0,1-1.393,1l.153.223a13.568,13.568,0,0,1,1.6-.627,2.588,2.588,0,0,1,.85-.2c.418-.028.655-.139.655-.432a.845.845,0,0,0-.516-.683,4.228,4.228,0,0,0-1.867-.348,6.626,6.626,0,0,0-2.661.613ZM80.3,10.684A9.464,9.464,0,0,0,80.721,9.4c-.014-.334-.892-.711-1.491-.725a2.725,2.725,0,0,0-.961.139l-.014.279a5.077,5.077,0,0,1,.85.293c.251.139.32.251.293.585a14.609,14.609,0,0,1-.32,1.742,7.2,7.2,0,0,1-1.783.209,2.465,2.465,0,0,1-1.7-.752l-.223.167a1.908,1.908,0,0,0,2.006,1.477,10.6,10.6,0,0,0,1.449-.139c-.139.529-.293,1.059-.46,1.519a19.429,19.429,0,0,1-2.076,4.249c-.251.446-.446.613-.446.989s.209.711.5.711c.348,0,.5-.181.711-.543a35.74,35.74,0,0,0,2.09-5.1c.237-.655.446-1.379.641-2.034a20.247,20.247,0,0,0,2.341-.738c.669-.265.864-.432.864-.725,0-.334-.46-.488-.725-.488a1.344,1.344,0,0,0-.516.223,9.894,9.894,0,0,1-1.658.7Zm.209,5.921a4.458,4.458,0,0,0,.209,1.5c.362,1.324,1.616,1.923,3.386,1.923A9.471,9.471,0,0,0,86,19.851c.46-.111.822-.279.822-.585,0-.4-.446-.585-.836-.585a12.123,12.123,0,0,1-2.187.265,2.707,2.707,0,0,1-2.508-1.059,3.482,3.482,0,0,1-.474-1.31ZM94.18,12.843c0,.975-2.536,3.734-4.445,5.044l.2.279A15.894,15.894,0,0,0,95.1,14.028c.279-.334.613-.488.613-.78a2.18,2.18,0,0,0-1.491-1.533,3.276,3.276,0,0,0-.892-.028l-.084.251C93.65,12.147,94.18,12.509,94.18,12.843Zm7.8,3.72c-.167-1.783-2.55-3.929-4.64-4.974l-.2.265a10.738,10.738,0,0,1,3.455,4.737c.209.6.334.933.752.92C101.745,17.511,102.038,17.121,101.982,16.563Zm9.809-7.4c.557.265.822.488.822.711a1.687,1.687,0,0,1-.362.752,22.705,22.705,0,0,1-6.911,6.005l.181.32a19.717,19.717,0,0,0,5.336-3.288,1.116,1.116,0,0,1,.153.613,34.808,34.808,0,0,1-.125,3.8c-.056.446-.167.738-.167,1,0,.529.265,1.2.794,1.2.362,0,.529-.223.529-.766,0-.794-.084-2.884,0-4.876.014-.362.125-.571.125-.766,0-.223-.32-.474-.725-.738.878-.85,1.574-1.588,2.076-2.132.39-.418.655-.4.655-.711,0-.4-.683-1.059-1.282-1.254a2.761,2.761,0,0,0-1-.125Zm11.717-.056c.474.209.836.46.836.725,0,.822-1.992,3.65-4.18,5.281l.2.279a12.6,12.6,0,0,0,4.263-3.623,1.282,1.282,0,0,0,.613.334,3.247,3.247,0,0,0,.78-.181,18.068,18.068,0,0,1,2.076-.334c.139,0,.2.056.139.237-1.115,2.8-4.375,6.381-7.956,8.248l.209.293a17.3,17.3,0,0,0,8.889-7.97c.223-.362.7-.474.7-.78,0-.432-1.031-1.045-1.393-1.045-.251,0-.39.265-.766.348a19.459,19.459,0,0,1-2.675.307,1.126,1.126,0,0,1-.209-.014,9.04,9.04,0,0,0,.5-.766c.223-.348.4-.46.4-.725s-.822-.738-1.477-.836a3.126,3.126,0,0,0-.878-.014Zm12.135,4.1c.139.362.78,1.017,1.184,1.017.307,0,.529-.251.947-.348.934-.223,3.915-.7,4.932-.794.181-.014.223.056.167.237a13.233,13.233,0,0,1-6.409,6.73l.2.32a12.432,12.432,0,0,0,7.259-6.256c.209-.4.78-.571.78-.878,0-.4-.947-1.184-1.407-1.184-.265,0-.4.237-.836.307-.989.153-4.9.655-5.726.655-.446,0-.683-.307-1.017-.738l-.237.125A2.529,2.529,0,0,0,135.644,13.206Zm7.538-3.414c0-.4-.516-.613-1.212-.613-.279,0-.46.209-1.254.39a8.989,8.989,0,0,1-2.313.348,2.339,2.339,0,0,1-1.393-.516l-.2.167c.474.822.892,1.24,1.644,1.24a23.233,23.233,0,0,0,4.11-.557C143.014,10.154,143.181,10.015,143.181,9.792Zm7.2.571a2.835,2.835,0,0,0,.167.906c.167.39.752,1.059,1.212,1.059.362,0,.446-.279.892-.4.738-.209,2.633-.683,3.5-.808.153-.028.237.014.167.209a18.982,18.982,0,0,1-7.858,7.872l.2.32a16.36,16.36,0,0,0,6.186-4.166,11.02,11.02,0,0,1,2.9,2.7c.655.808.906,1.24,1.338,1.24a.574.574,0,0,0,.571-.613c0-1.282-2.2-2.759-4.472-3.678a23.426,23.426,0,0,0,2.257-3.093c.181-.265.669-.4.669-.711,0-.362-1.017-1.184-1.477-1.184-.237,0-.418.307-.725.39a31.755,31.755,0,0,1-4.222.669c-.474,0-.766-.474-1.017-.822Zm12.637-.139h5.908c.2,0,.334-.07.376-.223-.446-.432-1.184-1.017-1.184-1.017l-.641.822h-.92V8.482c.334-.056.446-.181.474-.376l-1.574-.139V9.806h-2.536Zm.864.139a5.709,5.709,0,0,1,.613,2.243c.836.836,1.909-.947-.446-2.313Zm5.434,2.982c.2,0,.334-.07.376-.223-.46-.432-1.226-1.045-1.226-1.045l-.641.864h-1.115a15.037,15.037,0,0,0,1.379-1.965.453.453,0,0,0,.5-.265l-1.519-.446a18.846,18.846,0,0,1-.683,2.675h-3.72l.111.4Zm-2.8,2.773V15.5h2.55c.2,0,.334-.07.376-.223-.446-.432-1.143-1-1.143-1l-.641.822h-1.142V14.041c.307-.042.432-.181.446-.348l-1.519-.167V15.1h-2.633l.111.4h2.146a10.847,10.847,0,0,1-2.424,4.013l.167.2a10.234,10.234,0,0,0,2.633-2.619V20.8h.209c.39,0,.864-.237.864-.348v-4.18a4.356,4.356,0,0,1,1.365,1.978c1.031.7,1.839-1.407-1.338-2.16Zm7.175-3.3H171V9.848a22.812,22.812,0,0,0,3.65-.822c.362.111.6.1.725-.028L174.1,7.953a15.149,15.149,0,0,1-2.954,1.519l-1.24-.4v4.584c0,2.619-.307,5.058-2.341,6.952l.167.181c2.954-1.825,3.274-4.612,3.274-7.12v-.446h1.839V20.8h.181c.571,0,.934-.265.934-.348V13.219h1.407c.2,0,.334-.07.376-.223-.5-.474-1.324-1.129-1.324-1.129Zm7.05.85c-1.1-.432-1.728-1.017-1.728-1.992,0-1.17.906-1.783,2.132-1.783a2.344,2.344,0,0,1,1.24.307l.39,1.825h.794l.1-1.992a4.119,4.119,0,0,0-2.508-.808c-1.923,0-3.4,1.031-3.4,2.8,0,1.533,1.045,2.41,2.633,3.051l.571.237c1.365.543,1.923,1.017,1.923,2.006,0,1.24-.961,1.909-2.438,1.909a3.1,3.1,0,0,1-1.6-.376l-.39-1.909h-.78l-.1,2.146a5.791,5.791,0,0,0,2.968.808c2.118,0,3.595-1.087,3.595-2.9,0-1.435-.752-2.285-2.787-3.093Zm15.047-4.208h-3.65v.529l1.6.209.014,4.974c0,2.731-.892,3.734-2.675,3.734-1.574,0-2.578-.85-2.578-3.469V14.181c0-1.365,0-2.7.028-4.027l1.547-.167V9.458h-4.263v.529l1.282.139c.014,1.338.014,2.7.014,4.054v1.6c0,2.912,1.5,4.11,3.72,4.11,2.1,0,3.581-1.226,3.581-4.361l.014-5.364,1.365-.181Zm11.2,0h-3.5v.585l1.407.139-2.48,7.663-2.675-7.677,1.491-.125V9.458H197.1v.529l1.156.125,3.567,9.655h.641l3.2-9.614,1.324-.181Zm4.486,6.465V14.1h2.842v1.825Zm2.842-3.929v1.7H211.48v-1.7Zm4.082,0v1.7h-2.926v-1.7Zm-2.926,3.929V14.1H218.4v1.825Zm3.664,2.048h-3.664V16.313H218.4v.627h.167a1.533,1.533,0,0,0,.961-.362V12.188a1.091,1.091,0,0,0,.571-.279l-1.254-.975-.585.655h-2.787V10.182h5.113c.2,0,.348-.07.39-.223-.571-.488-1.463-1.129-1.463-1.129l-.794.947h-3.246V8.524c.348-.056.46-.209.488-.4l-1.644-.181V9.778h-5.378l.111.4h5.267v1.407h-2.759l-1.2-.529V17.2h.181c.46,0,.933-.251.933-.362v-.529h2.842v1.658h-5.768l.125.418h5.643V20.8h.237c.432,0,.92-.251.92-.39v-2.02H221c.181,0,.334-.07.362-.223a17.72,17.72,0,0,0-1.435-1.156Z" transform="translate(83 630.026)" fill="#fff"/>
    <g id="グループ_155" data-name="グループ 155" transform="translate(84.179 595.18)">
      <path id="パス_1737" data-name="パス 1737" d="M14.274-44.773a4.764,4.764,0,0,0-3.823-1.834,3.933,3.933,0,0,0-1.287.215,3.179,3.179,0,0,0-1.131.683,3.226,3.226,0,0,0-.8,1.209,4.772,4.772,0,0,0-.293,1.756,3.474,3.474,0,0,0,1.053,2.711,12.3,12.3,0,0,0,2.77,1.814q1.014.507,2.068,1.17a9.325,9.325,0,0,1,1.912,1.6,7.714,7.714,0,0,1,1.4,2.224,7.756,7.756,0,0,1,.546,3.043,9.351,9.351,0,0,1-.644,3.589,7.967,7.967,0,0,1-1.717,2.633,7.037,7.037,0,0,1-2.516,1.619,8.526,8.526,0,0,1-3.043.546,10.052,10.052,0,0,1-4.252-.9A8.963,8.963,0,0,1,1.4-24.955l2.536-3.433A6.468,6.468,0,0,0,6.1-26.672a5.813,5.813,0,0,0,2.594.624,3.266,3.266,0,0,0,2.458-1.014,3.941,3.941,0,0,0,.975-2.848,3.64,3.64,0,0,0-1.17-2.848,13.312,13.312,0,0,0-2.965-1.951,17.694,17.694,0,0,1-2.126-1.209A8.126,8.126,0,0,1,4.111-37.5,7.184,7.184,0,0,1,2.9-39.643a8.609,8.609,0,0,1-.449-2.945,9.058,9.058,0,0,1,.683-3.687A7.531,7.531,0,0,1,4.931-48.83a7.205,7.205,0,0,1,2.516-1.5,8.627,8.627,0,0,1,2.848-.488,9.813,9.813,0,0,1,3.765.683,7.221,7.221,0,0,1,2.789,2.009ZM40.295-22.5l.078-21.222h-.117L34.716-22.5H31.049L25.626-43.72h-.117L25.587-22.5H21.335v-27.62h6.281L32.921-29.91h.156l5.189-20.208h6.593V-22.5ZM57.733-46.139V-22.5h-4.6V-46.139H47.941v-3.979h14.98v3.979Z" transform="translate(172.481 50.82)" fill="#fff"/>
      <path id="パス_1736" data-name="パス 1736" d="M14.274-44.773a4.764,4.764,0,0,0-3.823-1.834,3.933,3.933,0,0,0-1.287.215,3.179,3.179,0,0,0-1.131.683,3.226,3.226,0,0,0-.8,1.209,4.772,4.772,0,0,0-.293,1.756,3.474,3.474,0,0,0,1.053,2.711,12.3,12.3,0,0,0,2.77,1.814q1.014.507,2.068,1.17a9.325,9.325,0,0,1,1.912,1.6,7.714,7.714,0,0,1,1.4,2.224,7.756,7.756,0,0,1,.546,3.043,9.351,9.351,0,0,1-.644,3.589,7.967,7.967,0,0,1-1.717,2.633,7.037,7.037,0,0,1-2.516,1.619,8.526,8.526,0,0,1-3.043.546,10.052,10.052,0,0,1-4.252-.9A8.963,8.963,0,0,1,1.4-24.955l2.536-3.433A6.468,6.468,0,0,0,6.1-26.672a5.813,5.813,0,0,0,2.594.624,3.266,3.266,0,0,0,2.458-1.014,3.941,3.941,0,0,0,.975-2.848,3.64,3.64,0,0,0-1.17-2.848,13.312,13.312,0,0,0-2.965-1.951,17.694,17.694,0,0,1-2.126-1.209A8.126,8.126,0,0,1,4.111-37.5,7.184,7.184,0,0,1,2.9-39.643a8.609,8.609,0,0,1-.449-2.945,9.058,9.058,0,0,1,.683-3.687A7.531,7.531,0,0,1,4.931-48.83a7.205,7.205,0,0,1,2.516-1.5,8.627,8.627,0,0,1,2.848-.488,9.813,9.813,0,0,1,3.765.683,7.221,7.221,0,0,1,2.789,2.009ZM33.312-22.5l-1.365-5.852H24.69l-1.4,5.852H18.6l6.866-27.62h5.969L38.188-22.5ZM28.435-45.709h-.156l-3,13.693h6.086ZM53.637-22.5l-7.373-13.42h-.117V-22.5H41.465v-27.62h4.681v11.977h.117l7.022-11.977h5.267L50.438-37.4l8.622,14.9Zm20.4,0-1.365-5.852H65.418l-1.4,5.852H59.332L66.2-50.118h5.969L78.916-22.5ZM69.163-45.709h-.156L66-32.016h6.086ZM101.153-22.5l.078-21.222h-.117L95.574-22.5H91.907L86.485-43.72h-.117L86.446-22.5H82.193v-27.62h6.281L93.78-29.91h.156l5.189-20.208h6.593V-22.5Zm29.22-13.849a24.044,24.044,0,0,1-.683,5.949,14.618,14.618,0,0,1-1.97,4.584,9.335,9.335,0,0,1-3.14,2.965,8.258,8.258,0,0,1-4.155,1.053,8.228,8.228,0,0,1-4.174-1.053,9.4,9.4,0,0,1-3.121-2.965,14.618,14.618,0,0,1-1.97-4.584,24.044,24.044,0,0,1-.683-5.949,24.476,24.476,0,0,1,.663-5.93,14.319,14.319,0,0,1,1.951-4.564,9.148,9.148,0,0,1,3.14-2.945,8.46,8.46,0,0,1,4.194-1.034,8.381,8.381,0,0,1,4.155,1.034,9.148,9.148,0,0,1,3.14,2.945,14.635,14.635,0,0,1,1.97,4.564A23.809,23.809,0,0,1,130.373-36.347Zm-4.837,0a22.479,22.479,0,0,0-.332-3.96,12.54,12.54,0,0,0-.975-3.2,6.064,6.064,0,0,0-1.6-2.126,3.385,3.385,0,0,0-2.2-.78,3.439,3.439,0,0,0-2.243.78,6.064,6.064,0,0,0-1.6,2.126,12.057,12.057,0,0,0-.956,3.2,23.85,23.85,0,0,0-.312,3.96,23.85,23.85,0,0,0,.312,3.96,12.36,12.36,0,0,0,.956,3.218,6.028,6.028,0,0,0,1.6,2.146,3.439,3.439,0,0,0,2.243.78,3.439,3.439,0,0,0,2.243-.78,6.028,6.028,0,0,0,1.6-2.146,12.36,12.36,0,0,0,.956-3.218A23.85,23.85,0,0,0,125.535-36.347Zm15.332-9.792V-22.5h-4.6V-46.139h-5.189v-3.979h14.98v3.979Zm26.528,9.792a24.044,24.044,0,0,1-.683,5.949,14.618,14.618,0,0,1-1.97,4.584,9.335,9.335,0,0,1-3.14,2.965,8.258,8.258,0,0,1-4.155,1.053,8.228,8.228,0,0,1-4.174-1.053,9.4,9.4,0,0,1-3.121-2.965,14.618,14.618,0,0,1-1.97-4.584,24.044,24.044,0,0,1-.683-5.949,24.477,24.477,0,0,1,.663-5.93,14.319,14.319,0,0,1,1.951-4.564,9.148,9.148,0,0,1,3.14-2.945,8.46,8.46,0,0,1,4.194-1.034,8.381,8.381,0,0,1,4.155,1.034,9.148,9.148,0,0,1,3.14,2.945,14.635,14.635,0,0,1,1.97,4.564A23.809,23.809,0,0,1,167.395-36.347Zm-4.837,0a22.479,22.479,0,0,0-.332-3.96,12.54,12.54,0,0,0-.975-3.2,6.064,6.064,0,0,0-1.6-2.126,3.385,3.385,0,0,0-2.2-.78,3.439,3.439,0,0,0-2.243.78,6.064,6.064,0,0,0-1.6,2.126,12.058,12.058,0,0,0-.956,3.2,23.851,23.851,0,0,0-.312,3.96,23.851,23.851,0,0,0,.312,3.96,12.36,12.36,0,0,0,.956,3.218,6.028,6.028,0,0,0,1.6,2.146,3.439,3.439,0,0,0,2.243.78,3.44,3.44,0,0,0,2.243-.78,6.028,6.028,0,0,0,1.6-2.146,12.36,12.36,0,0,0,.956-3.218A23.847,23.847,0,0,0,162.557-36.347Z" transform="translate(-1.4 50.82)" fill="#fff"/>
    </g>
  </g>
</svg>
